<?xml version="1.0" ?><!DOCTYPE svg  PUBLIC '-//W3C//DTD SVG 1.1//EN'  'http://www.w3.org/Graphics/SVG/1.1/DTD/svg11.dtd'><svg enable-background="new 0 0 512 512" height="512px" id="Calque_1" version="1.1" viewBox="0 0 512 512" width="512px" xml:space="preserve" xmlns="http://www.w3.org/2000/svg" xmlns:xlink="http://www.w3.org/1999/xlink"><g><path d="M427.138,416.929c0.875,2.092,2.631,3.491,3.825,4.082c1.212,0.597,1.811,0.748,0.92,0.622   c2.37,0.552,4.216,0.008,5.424-0.568c0.611-0.302,1.092-0.626,1.477-0.934c0.195-0.149,0.361-0.304,0.513-0.446   c0.074-0.073,0.146-0.144,0.215-0.21c0.085-0.089,0.166-0.173,0.244-0.253c1.243-1.287,1.517-1.666,1.817-2.483   c5.289-5.795,11.551-11.356,5.456-4.843l15.662-16.294l-9.634,9.474c1.087-1.516,4.936-5.3,8.829-9.146   c1.946-1.923,3.903-3.862,5.532-5.54c0.814-0.84,1.547-1.614,2.154-2.288c0.289-0.325,0.631-0.697,0.702-0.83   c0.157-0.224,0.393-0.55,0.433-0.667c0,0-0.201,0.229-0.553,0.632c-0.452,0.455-1.097,1.104-1.871,1.883   c-1.617,1.626-3.774,3.793-5.931,5.96c-4.313,4.335-8.627,8.669-8.627,8.669l0.722-1.007c-3.784,4.092-11.498,11.677-14.226,14.284   c0.351-0.491-0.032-0.338,3.006-3.401c-1.305,1.307-2.468,2.472-3.506,3.512c-0.494,0.497-0.958,0.964-1.396,1.403   c-0.291,0.284-0.588,0.521-0.881,0.721c-1.184,0.787-2.252,1.009-3.037,1.109c-0.795,0.087-1.341,0.051-1.74,0.034   c-0.411-0.018-0.669-0.029-0.902-0.039c-0.467-0.044-0.904,0.039-2.072-0.651c-0.567-0.359-1.332-0.959-2.031-2.09   c-0.673-1.109-1.323-2.88-0.879-5.148C426.57,413.584,426.456,415.071,427.138,416.929z" fill="#202020"/><path d="M443.636,395.961c2.039-2.286,4.078-4.572,6.539-7.033l-5.465,0.412l-23.803-0.197   c-0.196,0.264-12.786,0.475-4.262,0.707c0.833-0.018,2.073-0.044,3.438-0.073c0.748-0.008,1.529-0.016,2.306-0.024   c0.952,0.001,1.898,0.001,2.791,0.002c-0.347,0.07-1.083,0.128-2.08,0.176c-0.85,0.031-1.935,0.071-3.158,0.116   c-2.166,0.04-4.819,0.089-7.254,0.134c-4.87,0.071-8.864,0.145-6.324,0.432c6.834-0.063,10.775-0.098,14.061-0.127   c1.971-0.039,3.744-0.073,5.656-0.11c2.098-0.073,4.349-0.152,7.12-0.249c5.134,0.027,9.821,0.052,13.905,0.074   c-6.666,6.567-11.754,11.507-15.391,14.943c-0.795,0.826-1.404,1.488-1.939,2.088c-0.267,0.304-0.517,0.588-0.761,0.866   l-0.365,0.421c-0.115,0.135-0.149,0.195-0.229,0.297c-0.518,0.754-1.098,1.598-1.552,3.301c0.191-0.755,0.473-1.423,0.951-2.181   c0,0,0.229,0.044,0.459,0.089c0.223,0.053,0.445,0.105,0.445,0.105c0.179-0.273,0.376-0.535,0.596-0.78l1.384-1.435   c0.946-0.959,1.892-1.917,2.851-2.888c1.936-1.934,3.923-3.919,6.07-6.063c0,0-4.777,5.129-9.555,10.259l-0.428,0.463l-0.187,0.231   c-0.117,0.157-0.229,0.316-0.331,0.479c-0.202,0.325-0.367,0.659-0.497,0.993c-0.263,0.666-0.378,1.324-0.402,1.886   c-0.026,0.563,0.03,1.025,0.09,1.341c0.062,0.316,0.113,0.491,0.113,0.491c0.02-0.81,0.109-1.958,0.659-3.104   c0.273-0.57,0.657-1.126,1.167-1.624c1.437-1.418,2.938-2.898,4.469-4.41c6.327-6.293,13.169-13.098,18.33-18.231   c-2.583-0.021-4.789-0.052-6.568-0.101c5.785,0.291,4.563,0.404,3.31,0.476c-1.297,0.072-2.739,0.101,1.816,0.223   C450.333,389.554,447.732,392.043,443.636,395.961z" fill="#202020"/><path d="M426.868,412.115c-0.029,0.093-0.063,0.25-0.085,0.359C426.805,412.365,426.84,412.208,426.868,412.115z" fill="#202020"/><path d="M369.896,166.477c2.867-3.206,3.566-4.283,3.907-4.812l-32.405,35.992   c1.182-0.977,10.725-11.155,4.585-4.14c2.967-2.922,11.284-12.471,12.289-14.038l-2.096,2.836   c7.144-8.583,12.884-13.669,8.206-8.091l0.627-0.703l19.435-24.088C376.776,157.797,379.025,156.313,369.896,166.477z" fill="#202020"/><path d="M429.747,340.361c-1.677,0.705-2.807,1.605-3.575,2.36c-0.772,0.76-1.213,1.387-1.488,1.812   c-0.532,0.868-0.483,0.911-0.241,0.587C425.736,342.917,427.694,341.29,429.747,340.361z" fill="#202020"/><path d="M388.985,143.801l6.089-7.545C392.584,139.231,390.446,141.888,388.985,143.801z" fill="#202020"/><path d="M350.052,198.995c0.008,0.033-0.044,0.127,0.154-0.037l2.71-3.41c-0.044,0.049-0.058,0.063-0.075,0.083   C351.819,196.865,350.9,197.973,350.052,198.995z" fill="#202020"/><path d="M347.662,232.693c-0.687,0.78-1.278,1.453-2.099,2.385C346.328,234.209,347.019,233.424,347.662,232.693z" fill="#202020"/><path d="M255.887,295.519c2.492,1.348,4.984,2.694,7.483,4.085l5.432-6.192l2.688-3.063l1.464-1.707l5.556-6.493   c-1.742,2.292,5.156-5.473,2.328-1.915c1.069-1.244,6.148-7.024,4.652-5.548l-2.929,3.274c7.081-8.904,2.278-3.976,14.483-18.318   c-8.132,8.405-11.279,12.468-15.187,17.279c-1.378,1.583-2.532,2.91-3.7,4.251l-5.525,6.85l-1.381,1.713l-2.59,3.054   c-1.791,2.107-3.582,4.215-5.439,5.919l-0.468,0.126L255.887,295.519z" fill="#202020"/><path d="M181.477,374.98l-0.235,0.055C181.457,375.015,181.496,374.998,181.477,374.98z" fill="#202020"/><path d="M180.3,375.26l0.941-0.225C180.084,375.146,175.653,375.254,180.3,375.26z" fill="#202020"/><path d="M386.941,146.746c0.101-0.306,0.814-1.334,2.044-2.945l-4.541,5.631   C385.143,148.68,386.064,147.689,386.941,146.746z" fill="#202020"/><path d="M377.076,159.978l-12.067,13.543l-4.206,5.211C365.354,173.488,370.674,167.356,377.076,159.978z" fill="#202020"/><path d="M367.145,211.682c-25.069,27.987,5.566-7.408-6.136,5.285c-6.911,7.815-9.084,10.811-13.347,15.726   c19.699-22.364-1.747,3.863,18.217-18.605c-2.336,3.649-13.937,16.619-20.904,24.067c-8.232,8.12,6.381-7.828,7.635-10.217   c-7.99,9.035-6.476,7.539-9.62,11.596c-12.792,13.963-25.604,29.669-33.875,37.438c-9.063,10.285-8.217,9.833-13.228,15.93   c-0.508,1.654,13.932-14.891,17.758-18.28c-0.75,0.741-2.216,2.184-1.894,1.673l8.047-8.702c-7.719,8.188,0.504-1.647,4.487-6.154   c2.915-3.259,8.711-9.739,8.06-8.716l-4.315,5.024c5.876-6.179,12.192-14.328,18.511-20.751c0.437-0.24-1.786,2.342-2.056,2.793   c6.381-7.827,12.913-15.034,22.645-26.362l-5.256,6.914c7.399-9.408,25.669-29.347,38.527-42.988   c-1.482,1.462-4.054,4.188-2.652,2.424c7.24-8.294,13.174-14.14,10.044-10.097c3.376-4.195,10.326-11.72,17.586-19.624   c3.63-3.951,7.337-7.997,10.714-11.769c1.688-1.885,3.295-3.702,4.767-5.404c0.73-0.855,1.433-1.678,2.102-2.461   c0.371-0.446,0.733-0.881,1.085-1.303c0.545-0.662,1.018-1.351,1.432-2.044c0,0,0.25-0.393,0.639-1.172   c0.381-0.779,0.902-1.954,1.294-3.519c0.388-1.561,0.646-3.515,0.453-5.721c-0.189-2.199-0.846-4.654-2.183-7.007   c-1.34-2.352-3.355-4.536-5.953-6.101c-2.596-1.579-5.786-2.479-9.028-2.379c-3.236,0.081-6.538,1.172-9.232,3.182   c-0.675,0.496-1.307,1.051-1.891,1.647c-0.296,0.293-0.57,0.611-0.84,0.92l-0.494,0.612c-0.659,0.817-1.321,1.638-1.983,2.458   c-10.593,13.13-21.185,26.26-21.185,26.26c1.62-1.936,3.371-3.992,5.212-6.082c4.571-4.125,6.724-6.629-0.017,1.745   c6.804-8.053,3.729-5.403,14.308-17.183c-3.92,4.827-4.429,6.48,5.778-4.736c0.408-0.461,0.713-0.842,1.277-1.433   c0.521-0.535,1.092-1.019,1.695-1.453c1.208-0.867,2.559-1.517,3.967-1.913c2.813-0.807,5.846-0.618,8.49,0.474   c2.655,1.083,4.873,3.023,6.31,5.437c1.443,2.409,2.072,5.243,1.83,7.988c-0.227,2.748-1.338,5.413-3.092,7.502   c-1.299,1.556-2.583,3.095-3.857,4.622c-2.522,3.039-5.003,6.027-7.472,9.001c-9.86,11.908-19.483,23.608-30.991,37.07   c-1.239,0.644-19.745,21.39-28.874,31.352c3.062-4.184,9.662-11.733,16.549-19.536c-4.384,4.84-11.933,13.172-17.532,19.354   L367.145,211.682z" fill="#202020"/><path d="M424.851,145.177c-0.656,0.685-1.335,1.393-2.032,2.12C423.207,146.925,423.817,146.295,424.851,145.177z" fill="#202020"/><path d="M388.321,186.768c0.073-0.109,0.032-0.085,0.048-0.132c-0.722,0.819-1.443,1.639-2.182,2.478   C386.939,188.287,387.788,187.354,388.321,186.768z" fill="#202020"/><path d="M393.707,140.886c-1.419,1.75-2.469,3.043-3.889,4.793c0.9-1.054,2.03-2.377,3.117-3.65   C393.954,140.8,394.412,140.192,393.707,140.886z" fill="#202020"/><path d="M387.993,145.943l0.655-1.028c-0.66,0.708-1.123,1.205-1.708,1.832   C386.847,147.013,387.102,146.865,387.993,145.943z" fill="#202020"/><path d="M265.617,313.935c0,0-1.011,0.196-2.043,0.183c-1.033,0.011-2.054-0.187-2.054-0.187   C263.986,314.377,265.076,314.033,265.617,313.935z" fill="#202020"/><path d="M338.513,242.222c8.711-9.74,0.503-1.649,12.874-15.386l-3.664,4.001   c8.645-10.063,24.354-27.285,34.884-39.01c-0.974,1.516,6.66-6.863,5.762-5.191c7.132-8.075,14.197-16.067,17.566-20.502   c4.58-4.856,11.062-12.663,16.884-18.837c-2.601,2.478,7.398-9.593-6.175,5.972c1.088-1.263,0.342-0.528,1.416-1.777   c-9.187,9.628-12.277,14.023-19.94,22.542c-4.785,4.91,7.176-8.615,2.769-3.884c-9.391,10.799-30.295,33.141-28.907,33.116   c-6.917,7.784-8.045,8.703-10.262,10.885c-10.223,12.961-41.263,45.107-40.136,45.919c3.985-4.504,10.565-11.764,16.252-18.519   L338.513,242.222z" fill="#202020"/><path d="M408.343,124.535c0.541-0.595,1.263-1.387,1.712-1.88C409.549,123.211,408.919,123.902,408.343,124.535z" fill="#202020"/><path d="M294.996,244.362l2.986-4.665c20.666-23.261,28.385-31.448,46.568-51.685   c1.483-1.461-0.668,1.043-1.759,2.313c12.725-14.28,32.021-35.414,41.032-46.036c4.078-4.517,14.984-16.193,11.135-11.523   c1.923-2.253,4.132-4.821,6.433-7.332c0.845-0.453-5.032,5.725-4.966,6.048c1.823-1.991,2.574-2.73,2.914-3.261   c-2.834,3.562,3.973-2.764-10.223,12.962c-6.056,5.586,9.77-10.976,5.906-7.938c-4.708,5.217-3.92,4.827-4.247,5.342   c-6.008,6.641-6.007,6.325-5.829,5.843c-2.104,2.723-9.911,10.849-12.791,14.634c-11.607,12.98,0.168-1.125-7.438,7.332   l-3.759,5.438l-12.776,13.942c-18.103,20.538,3.709-1.928-16.879,21.64c2.423-3.351-6.529,5.476-16.409,16.178   c5.809-6.495,16.179-18.831,23.896-27.02c-11.108,11.337,14.55-16.269,8.477-10.664c-4.979,6.063-13.689,15.804-20.654,23.245   l2.178-2.534c-7.321,7.992-12.153,14.68-22.416,25.564c-4.954,5.54-4.2,4.346-3.473,3.242c-2.057,2.379-4.004,4.632-5.439,6.292   C296.021,243.373,295.073,244.417,294.996,244.362z M305.702,232.214l6.717-7.331C310.736,226.543,308.259,229.3,305.702,232.214z" fill="#202020"/><path d="M309.438,388.689c0.987,0.022,2.125,0.048,3.021,0.068C311.798,388.719,310.654,388.701,309.438,388.689z" fill="#202020"/><path d="M83.744,288.546l0.028-5.759C83.761,285.035,83.752,286.879,83.744,288.546z" fill="#202020"/><path d="M80.944,159.296l-0.198-8.413C80.759,154.204,80.838,156.806,80.944,159.296z" fill="#202020"/><path d="M240.771,388.631l-0.281-0.006c-0.471,0.016-0.83,0.027-1.327,0.045L240.771,388.631z" fill="#202020"/><path d="M72.96,132.052c-0.071,2.118-0.136,4.451-0.186,7.585C72.858,139.251,72.917,136.436,72.96,132.052z" fill="#202020"/><path d="M80.981,160.845c0.007-0.216,0.01-0.34,0.016-0.51c-0.017-0.327-0.035-0.687-0.053-1.04L80.981,160.845z" fill="#202020"/><path d="M81.272,366.572c0.018,1.437,0.034,2.786,0.052,4.285c0.361-0.59,0.774-1.267,1.209-1.979   c-0.479,0.774-0.907,1.464-1.194,1.928C81.309,368.911,81.289,367.661,81.272,366.572z" fill="#202020"/><path d="M83.675,346.631c0.031,1.936,0.061,3.785,0.084,5.227L83.675,346.631z" fill="#202020"/><path d="M207.04,266.381l6.833,3.663C210.537,268.203,208.526,267.137,207.04,266.381z" fill="#202020"/><path d="M91.534,351.289c0.394-0.706,0.787-1.41,1.05-1.883C91.678,350.893,91.227,351.702,91.534,351.289z" fill="#202020"/><path d="M358.704,391.215c-0.176,0.002-0.366,0.003-0.471,0.004l-0.195,0.098L358.704,391.215z" fill="#202020"/><path d="M377.556,389.98c2.223-0.022,4.537-0.046,6.812-0.07C381.838,389.906,379.373,389.931,377.556,389.98z" fill="#202020"/><path d="M71.598,248.405c-0.123,2.053-0.269,6.87-0.409,4.622C71.366,256.955,71.796,256.694,71.598,248.405z" fill="#202020"/><path d="M320.909,396.519c1.235-0.113,2.771-0.201,4.314-0.287C322.355,396.355,319.838,396.457,320.909,396.519z" fill="#202020"/><path d="M325.224,396.232c1.418-0.065,2.935-0.134,4.203-0.191C327.95,396.107,326.531,396.173,325.224,396.232z" fill="#202020"/><path d="M64.564,196.184c0.058-0.51,0.105-1.301,0.121-2.373C64.569,194.125,64.545,194.981,64.564,196.184z" fill="#202020"/><path d="M389.871,390.047c1.223-0.202,30.84-0.641,5.929-0.744c0.961-0.629,15.982-0.291,22.623-0.447   c-4.823-0.147,2.399-0.404,0.935-0.629c-3.294,0.076-7.209,0.258-12.654,0.213c-2.504-0.287,5.759-0.482,12.21-0.375   c-7.948-0.332,10.086-0.499-1.163-0.754c-24.049,0.223-41.044,0.451-57.954,1.369c13.707-0.15,29.042-0.338,40.285-0.086   l-4.726,0.545c-12.707-0.479-20.552-0.121-33.05-0.172l28.075,0.289c13.151,0.452,4.354,0.557-6.014,0.654   C386.917,389.918,389.224,389.95,389.871,390.047z" fill="#202020"/><path d="M370.954,394.82l0.471,0.016c0.412-0.02,0.922-0.033,1.183-0.056L370.954,394.82z" fill="#202020"/><path d="M211.142,256.065l2.208,0.993C211.546,256.16,210.972,255.914,211.142,256.065z" fill="#202020"/><path d="M354.207,392.185h0.02C354.037,392.191,353.991,392.191,354.207,392.185z" fill="#202020"/><path d="M151.836,237.17c0.071-0.108,0.138-0.22,0.279-0.4C151.909,237.025,151.927,237.04,151.836,237.17z" fill="#202020"/><path d="M152.749,257.48c0.081-0.08,0.118-0.096,0.279-0.304C153.685,256.076,153.333,256.589,152.749,257.48z" fill="#202020"/><path d="M151.832,237.256c-0.013-0.011-0.063,0.025,0.004-0.086C151.806,237.235,151.72,237.368,151.832,237.256z" fill="#202020"/><path d="M91.03,183.253c0,0-0.094,0.921-0.184,2.373C90.897,186.188,90.956,185.626,91.03,183.253z" fill="#202020"/><path d="M90.225,240.847c-0.021,0.366-0.033,0.582-0.06,1.052L90.225,240.847z" fill="#202020"/><path d="M74.049,234.783c0.008-2.85-0.006-4.988-0.029-6.792C74.006,230.07,74.008,232.319,74.049,234.783z" fill="#202020"/><path d="M152.115,236.77c0.57-0.708,1.419-1.741,3.215-2.975C153.355,235.159,152.582,236.199,152.115,236.77z" fill="#202020"/><path d="M107.801,139.643c-0.63-0.079-1.216-0.206-1.794-0.387c0.344,0.127,0.695,0.237,1.045,0.329   c0,0,0.187,0.019,0.375,0.038C107.613,139.634,107.801,139.643,107.801,139.643z" fill="#202020"/><path d="M113.543,118.362c0.769,0.683,1.147,0.97,1.594,1.337c-7.745-7.425-21.507-21.535-23.566-22.775   c2.585,2.564,15.688,16.149,13.175,14.114c2.695,2.593,5.925,5.915,8.845,8.937c0.73,0.755,1.441,1.492,2.119,2.193   c0.703,0.702,1.259,1.345,1.703,2.051c0.878,1.392,1.249,2.745,1.417,3.684c-0.2-1.453-0.65-2.508-1.025-3.243   c-0.378-0.739-0.7-1.167-0.844-1.406c-0.325-0.455,0.063-0.178,0.739,0.707c0.658,0.884,1.515,2.49,1.749,4.505   c0.259,2-0.174,4.333-1.233,6.175c-1.058,1.618-1.826,2.101-2.076,2.295c-0.282,0.17-0.153-0.007-0.014-0.21   c0.138-0.206,0.295-0.428,0.128-0.332c-0.18,0.076-0.611,0.575-1.964,1.366c0,0-0.222,0.142-0.637,0.342   c-0.412,0.203-1.018,0.464-1.781,0.667c-1.513,0.425-3.707,0.5-5.703-0.226c-0.993-0.353-1.929-0.869-2.706-1.481   c-0.767-0.588-1.43-1.34-2.046-1.926c-1.2-1.191-2-1.985-2-1.985s0.692,0.699,1.73,1.747c0.513,0.51,1.135,1.163,1.756,1.756   c0.643,0.58,1.402,1.123,2.234,1.529c1.658,0.84,3.553,1.106,4.937,0.998c1.393-0.092,2.278-0.413,2.278-0.413   c0,0-1.036,0.486-2.192,0.698c-1.147,0.24-2.357,0.178-2.357,0.178c0.577,0.065,0.976,0.093,1.595,0.077   c3.343-0.056,5.633-1.516,7.008-2.79c1.399-1.314,2.042-2.518,2.448-3.354c0.753-1.719,0.787-2.047,0.966-2.343   c0.076-0.154,0.151-0.314,0.233-0.691c0.073-0.377,0.173-0.975,0.119-1.998c-0.073-1.009-0.275-2.497-1.278-4.335   c-0.483-0.904-1.27-1.906-2.218-2.79C115.758,120.526,114.72,119.512,113.543,118.362z" fill="#202020"/><path d="M115.136,119.699c1.146,1.135,2.208,2.003,3.035,2.973c-0.402-0.521-0.832-0.956-1.141-1.25   c-0.32-0.303-0.587-0.557-0.817-0.775C115.749,120.217,115.427,119.94,115.136,119.699z" fill="#202020"/><path d="M35.935,124.014c-0.686,1.398-1.211,3.063-1.218,5.179C34.671,128.193,34.99,125.825,35.935,124.014z" fill="#202020"/><path d="M352.107,188.247c-0.424,0.226-10.699,11.125-10.201,11.213c3.008-3.272,6.038-6.569,9.082-9.88   L352.107,188.247z" fill="#202020"/><path d="M68.596,359.443c0.003-1.667,0.007-3.34,0.011-5.014c-0.024-0.359-0.048-0.706-0.066-0.974   C68.478,354.475,68.556,357.776,68.596,359.443z" fill="#202020"/><path d="M101.33,107.908c1.987,1.895,2.899,2.711,3.415,3.13C103.464,109.805,102.264,108.684,101.33,107.908z" fill="#202020"/><path d="M67.579,360.385c-0.122,2.124-0.309,5.256-0.472,5.7c-0.003,4.347,0.221,7.399,0.301,11.824   C67.346,372.915,67.388,367.136,67.579,360.385z" fill="#202020"/><path d="M67.416,378.268c-0.003-0.124-0.005-0.248-0.008-0.359C67.411,378.033,67.413,378.144,67.416,378.268z" fill="#202020"/><path d="M358.205,181.749c0.84-0.976,1.706-1.982,2.598-3.018l-1.303,1.616c2.338-2.53,4.663-5.046,6.992-7.567   c0.816-0.936,1.702-1.951,2.789-3.197c-0.436,0.505-0.747,0.919-0.927,1.188c0.761-0.819,1.504-1.619,2.247-2.419   c5.161-6.391,18.585-21.774,22.334-26.324c5.074-5.916,11.378-13.073,15.407-17.494c-3.717,4.112-8.578,9.64-6.917,8.163   c3.862-4.096,6.845-7.037,10.43-10.812c1.792-1.887,3.734-3.982,6.012-6.535c1.129-1.285,2.352-2.675,3.691-4.202   c0.346-0.392,0.645-0.758,1.046-1.198c0.398-0.432,0.835-0.852,1.323-1.232c0.972-0.764,2.116-1.416,3.413-1.849   c0,0-0.781,0.203-1.853,0.752c-1.063,0.525-2.412,1.522-3.405,2.688c-1.905,2.118-3.81,4.236-3.81,4.236s1.027-1.229,2.568-3.073   c0.386-0.461,0.803-0.96,1.244-1.489c0.499-0.594,1.101-1.189,1.787-1.715c1.367-1.064,3.101-1.872,4.945-2.213   c1.842-0.349,3.776-0.235,5.489,0.273c1.719,0.495,3.198,1.369,4.299,2.296c1.108,0.926,1.864,1.895,2.331,2.604   c0.469,0.712,0.679,1.155,0.679,1.155c0.533,1.264,0.649,2.042,0.696,2.347c0.023,0.313-0.029,0.165-0.197-0.305   c-0.311-0.922-1.176-3.233-3.239-5.168c-1.011-0.963-2.289-1.813-3.69-2.375c-1.398-0.568-2.904-0.839-4.293-0.837   c-2.811-0.025-4.985,1.081-5.8,1.645c2.449-1.438,5.399-1.856,8.059-1.252c2.675,0.583,5.016,2.163,6.558,4.221   c1.568,2.057,2.311,4.58,2.272,6.965c-0.035,2.396-0.846,4.662-2.137,6.429c-0.31,0.439-0.688,0.874-1.021,1.227   c-0.325,0.348-0.646,0.692-0.965,1.032c-0.634,0.682-1.253,1.347-1.856,1.996c-1.196,1.308-2.33,2.549-3.397,3.716   c-2.113,2.354-3.909,4.461-5.302,6.314c-1.234,0.64-3.301,1.716-12.016,11.461c6.724-6.63-4.979,6.063,0.639,0.716   c-2.815,3.543-9.892,10.717-10.123,11.52l0.668-1.043c-15.517,16.067-19.508,22.308-25.604,29.669   c-17.742,19.991-26.194,28.899-40.725,45.15c-0.816,0.417-5.458,4.225-11.286,10.746c-2.394,3.316-15.445,18.111-16.371,19.986   c10.641-11.458,8.209-9.822,14.376-16.865c5.657-5.391,0.909-0.131,8.296-7.799c-5.921,6.226-25.746,29.04-32.457,35.655   l2.165-2.52c-10.302,10.928-13.265,12.121-29.378,31.274c0,0-0.483,0.569-1.208,1.423c-0.362,0.426-0.785,0.924-1.238,1.457   c-0.457,0.524-0.903,1.104-1.521,1.719c-1.189,1.183-2.679,2.038-3.865,2.478c-1.188,0.448-2.036,0.567-2.036,0.567   c0.636-0.162,0.689-0.256,1.014-0.382c-2.672,0.658-5.062,0.25-6.872-0.492c-0.454-0.19-0.878-0.4-1.272-0.624   c-0.354-0.204-0.692-0.399-1.019-0.589c-0.649-0.379-1.248-0.729-1.806-1.055c-2.222-1.322-3.803-2.263-5.438-3.236   c-3.274-1.942-6.804-3.946-16.352-8.969c1.476,0.776,0.592,0.213,2.09,1.003c-10.589-6.257-21.735-11.729-29.922-16.132   c-4.728-3.172,1.403,0.248,4.636,1.656c-7.753-4.401-15.842-8.796-23.506-12.859c-3.841-2.013-7.565-3.964-11.08-5.805   c-1.655-0.849-3.261-1.672-4.807-2.465c-1.356-0.679-2.66-1.331-3.901-1.952c-1.232,2.179-2.328,4.117-3.299,5.833l-7.668,11.647   c2.122-3.55,4.424-7.528,5.998-10.372c0.388-0.714,0.735-1.354,1.029-1.896c0.262-0.503,0.462-0.907,0.606-1.22   c0.284-0.618,0.31-0.819-0.06-0.366c-0.967,1.607-1.646,2.735-2.206,3.665c-0.561,0.957-1.002,1.71-1.494,2.549   c-0.988,1.674-2.208,3.671-5.137,8.234c0.73-1.727,2.917-5.726,5.314-10.242c-12.385,18.704-1.766,4.813-10.918,17.597   c-3.763,5.958-5.57,9.655-5.672,10.503l-7.211,10.545c-0.363,1.448-8.743,14.795-14.19,23.57c-0.503,1.174,4.853-6.77,6.788-10.179   c-0.102,0.848-5.815,10.235-9.589,16.21c-1.103,0.835-7.24,10.639-12.666,19.274c-1.269,2.013-2.496,3.957-3.59,5.691   c-1.014,1.594-1.919,2.997-2.654,4.096c-1.458,2.177-2.297,3.235-1.73,1.797c-0.565,0.917-1.139,1.848-1.827,2.963   c15.255-0.109,33.168-0.237,49.731-0.356c16.944-0.111,32.507-0.236,42.592-0.433c6.909,0.27,20.989,0.283,12.55,0.742   c25.552,0.004,38.729-0.998,64.092-0.73c2.098,0.121-11.465,0.008-10.563,0.334c16.577-0.391,30.16,0.412,55.882,0.152   c-4.327,0.018-5.589,0.219-6.19,0.32c-0.451-0.162,10.537-0.336,17.191-0.492c3.739,0.084-4.98,0.117-2.883,0.24   c22.231,0.213,42.093,0.064,61.689-0.161c9.799-0.119,19.531-0.237,29.459-0.358c8.651-0.085,17.475-0.171,26.696-0.261   c-2.808-2.795-5.709-5.683-8.684-8.644c4.042,4.051,7.129,6.906,9.473,8.971c-2.083,0.19-2.884,0.413-2.704,0.543   c1.342,0.001,2.684,0.003,4.022,0.003l-6.032-6.045c-1.978-1.75-4.529-4.187-7.268-6.825c-1.72-1.643-2.982-4.021-3.295-6.546   c-0.347-2.522,0.218-5.157,1.477-7.27c0.348-0.499,1.321-1.629,1.912-2.057c0.283-0.228,0.438-0.312,0.303-0.145   c-0.122,0.179-0.571,0.582-1.263,1.535c2.239-2.817,5.673-4.243,8.882-4.137c1.609,0.036,3.173,0.43,4.564,1.117   c0.697,0.342,1.352,0.756,1.952,1.229c0.3,0.237,0.586,0.489,0.859,0.753l0.757,0.738c4.005,3.914,7.874,7.579,11.856,11.338   c3.981,3.758,8.077,7.609,12.535,11.895c2.217,2.155,4.535,4.409,6.991,6.797c0.658,0.64,1.393,1.521,1.882,2.384   c0.125,0.21,0.265,0.442,0.388,0.693c0.108,0.219,0.221,0.445,0.332,0.702l0.266,0.655l0.031,0.078l0.08,0.242l0.008,0.028   l0.011,0.041l0.04,0.157l0.09,0.325c0.27,0.948,0.421,2.168,0.408,3.203c0.021,0.576-0.094,1.153-0.145,1.635l-0.067,0.411   l-0.031,0.179c-0.02,0.088-0.002,0.063-0.07,0.334l-0.206,0.751c-0.425,1.35-1.117,2.7-2.072,3.869   c0.195-0.27,0.417-0.57,0.617-0.9l0.254-0.436l0.074-0.128l0.029-0.058l0.058-0.116l0.114-0.231   c0.156-0.318,0.299-0.643,0.438-0.998c0.128-0.345,0.238-0.671,0.383-1.034l0.146-0.611l0.032-0.14l0.042-0.191l0.014-0.093   l0.039-0.285c0.071-0.5,0.085-0.801,0.129-1.297c0.045-0.449-0.013-0.936-0.03-1.33c-0.023-0.429-0.088-0.916-0.175-1.328   c-0.315-1.718-1.088-3.396-2.13-4.765c-0.511-0.686-1.198-1.337-1.726-1.821l-1.679-1.571l-3.357-3.143l-13.432-12.57l6.769,7.412   l-13.018-12.183c7.271,7.778,14.399,13.74,14.959,14.993c-1.688-1.493-5.487-5.356-5.795-5.289   c7.088,7.36,7.914,7.671,13.412,13.035c-7.507-6.804-18.27-17.224-29.065-27.809l-2.001-1.955   c-0.577-0.545-1.232-0.996-1.931-1.354c-1.4-0.714-3-1.005-4.54-0.86c-1.542,0.141-3.014,0.72-4.214,1.623   c-1.2,0.91-2.137,2.124-2.677,3.462c-1.123,2.691-0.621,5.773,0.899,7.846c0.184,0.265,0.391,0.51,0.602,0.748l0.328,0.343   l0.5,0.493c0.667,0.657,1.32,1.302,1.961,1.933c1.29,1.27,2.526,2.484,3.699,3.638c1.516,1.461,0.799,0.829-0.352-0.205   c-1.153-1.036-2.711-2.445-3.009-2.671c5.301,5.267,8.787,8.968,13.76,13.977c-2.776-0.01-5.844,0-9.442,0.049   c-3.241,0.183-2.527,0.265,0.021,0.304c2.532,0.038,6.805,0.033,10.368,0.039c-0.783-0.788-1.51-1.521-2.133-2.148   c0.673,0.433,1.547,1.184,2.897,2.466c-1.729,0.057-4.604,0.063-8.655,0.094c-0.613-0.123-3.521-0.194-7.637-0.243   c-3.741-0.027-8.68-0.063-13.849-0.102c-9.068-0.057-18.944-0.127-22.823-0.425c-32.167,0.154,5.144,1.264-26.258,1.053   l-9.38-0.559c-18.231,0.432-41.809,0.814-62.438,0.695l4.347-0.019c2.896-0.239-1.889-0.386-4.007-0.509   c-15.59-0.238-29.598,0.439-39.043-0.119c-17.78,0.594-47.423,1.033-67.752,1.34c-5.484-0.736,26.519-0.625,34.978-1.086   l-18.505,0.004c11.439-0.01,15.956-0.291,22.813-0.709c-16.217-0.137-21.551,0.508-36.925,0.693   c1.196-0.199-0.856-0.322-7.949-0.328l-2.013,0.488c-0.131-0.039-0.915-0.076-3.105-0.107l-27.356,0.299   c5.805,0.209,6.086,0.635,13.152,0.641c-2.523-0.285,3.471-0.342,10.543-0.334c-6.197,0.318,6.896,0.27,6.746,0.533   c-14.178-0.014-31.598,0.053-40.894,0.186l-3.02-0.449c-13.938-0.115-26.029,0.137-40.96,0.006l4.229-0.24   c-3.353-0.012-6.698-0.024-10.024-0.037c4.589-7.284,9.124-14.481,13.536-21.484c3.507-5.541,6.953-10.905,10.36-15.963   c7.273-12.507,16.617-28.137,22.463-38.422c1.202-2.361,5.451-8.94,10.573-16.836c2.556-3.95,5.327-8.232,8.067-12.467   c1.419-2.226,2.83-4.438,4.201-6.589c1.922-3.068,3.79-6.048,5.556-8.867c2.328,1.26,4.542,2.459,6.613,3.58   c1.051,0.558,2.065,1.095,3.039,1.61c0.387,0.199,0.766,0.394,1.136,0.584c0.316,0.156,0.625,0.311,0.926,0.46   c0.153,0.097-0.015,0.025-0.425-0.174c-0.204-0.102-0.469-0.232-0.786-0.39c-0.418-0.216-0.904-0.467-1.444-0.746   c-2.363-1.24-5.676-2.979-9.009-4.729c-2.014,3.376-4.039,6.771-5.472,9.173c1.978-3.1,3.82-6.068,5.546-8.883   c4.407,2.359,8.299,4.442,11.477,6.143c2.338,1.26,4.118,2.295,5.139,3.131c-2.65-1.494-4.62-2.604-6.057-3.414   c-1.911-1.046-3.113-1.704-3.802-2.082c-1.505-0.793-0.773-0.303,0.438,0.469c0.6,0.381,1.325,0.84,1.973,1.251   c0.156,0.1,0.307,0.197,0.451,0.289c0.103,0.071,0.2,0.139,0.289,0.2c0.178,0.125,0.324,0.231,0.418,0.309   c0.189,0.155,0.176,0.194-0.186,0.032c-0.09-0.042-0.203-0.095-0.34-0.159c-0.151-0.077-0.33-0.168-0.539-0.273   c-0.503-0.27-1.153-0.616-1.973-1.054c2.683,1.482,5.401,2.985,8.054,4.451c2.471,1.35,4.88,2.665,7.13,3.894   c4.507,2.443,8.392,4.512,10.887,5.774c-16.115-8.963,6.134,2.446-10.308-6.399c12.89,6.585,30.239,16.006,45.204,24.563   c-0.277,0.147,1.52,1.288,7.081,4.509l4.716,2.187c7.014,3.983-13.849-7.188,0.273,0.826c3.729,1.889,8.331,4.382,13.244,7.1   c0.592,0.326,1.189,0.656,1.791,0.988c0.385,0.205,0.79,0.37,1.212,0.486c0.84,0.241,1.744,0.289,2.623,0.152   c0.879-0.143,1.729-0.472,2.459-0.971c0.367-0.246,0.706-0.533,1.01-0.856c0.465-0.512,0.929-1.022,1.39-1.529   c7.65-8.456,14.464-16.088,16.462-19.21c8.878-9.141-15.859,18.326-2.578,4.461c-3.574,4.294-8.031,9.217-11.847,13.459   c-0.952,1.063-1.864,2.082-2.718,3.034c-0.647,0.745-1.229,1.191-1.874,1.578c-1.265,0.739-2.423,0.944-3.063,1.116   c1.953-0.142,2.976-0.784,3.593-1.1c0.613-0.354,0.854-0.495,1.045-0.562c0.189-0.069,0.32-0.076,0.631-0.313   c0.337-0.271,1.003-0.951,2.173-2.247l7.892-9.316l-1.823,1.99c13.283-15.597,35.206-39.521,52.64-59.015   c14.375-16.866,23.929-28.785,41.764-48.481c-4.985,6.067,15.026-16.165,4.316-3.299c4.232-4.462,8.311-9.01,11.326-12.487   s4.969-5.883,4.951-6.061c-7.309,7.977-2.609,2.77-8.805,9.452c3.879-4.784,13.38-15.308,17.434-19.495   c-1.824,1.99-1.092,1.269-1.415,1.778c8.805-9.452,3.906-4.812,10.055-11.836c2.315-1.9,13.885-15.231,19.763-21.409   c0,0,1.949-2.403,3.899-4.806c0.243-0.3,0.487-0.601,0.728-0.896l0.356-0.439l0.175-0.25c0.217-0.33,0.377-0.653,0.492-0.935   c0.223-0.569,0.282-0.965,0.282-0.965c-0.18,0.862-0.202,0.941,0.024,0.556c0.201-0.385,0.525-1.312,0.452-2.432   c-0.047-1.12-0.536-2.323-1.203-3.141c-0.657-0.847-1.405-1.313-1.599-1.524c-2.321-1.026-4.998-0.324-6.496,1.583   c-2.996,3.553-6.427,7.513-10.985,12.488c3.57-4.289-8.478,8.938-8.952,8.827c-15.774,16.899-24.758,29.217-39.864,45.072   c0.381-0.572,3.13-4.042-1.232,0.641c-3.285,3.824-9.229,10.346-12.804,14.384l0.104-0.134c-0.067,0.081-0.108,0.131-0.18,0.217   c-1.75,1.978-2.822,3.247-2.789,3.364c-5.868,7.136-8.736,10.958-20.633,24.69c1.255-0.664,11.379-12.184,15.708-17.223   l3.483-4.586c4.218-3.582,10.869-12.255,13.85-15.192c-6.652,8.673-27.815,31.847-40.022,46.188   c8.188-8.073,24.98-26.553,39.502-42.794l-6.64,6.934l7.623-8.476l-7.771,7.85c7.295-7.962,13.444-14.985,19.999-22.216   c-7.642,8.496-11.121,11.352-6.715,6.621c8.879-9.14,8.65-10.068,15.187-17.279c-3.66,3.996-8.383,9.226-5.55,5.664   c13.281-13.866,16.468-17.973,28.615-30.52c-2.053,1.063,14.535-16.255,15.79-18.644l-5.471,5.971c0,0,2.783-3.272,5.566-6.545   c1.392-1.637,2.783-3.273,3.827-4.5c0.229-0.269,0.438-0.515,0.625-0.733c0.103-0.13,0.206-0.229,0.287-0.314   c0.167-0.167,0.271-0.25,0.271-0.25c0.843-0.526,1.478-0.614,1.834-0.65c0.364-0.022,0.478,0.03,0.44,0.084   c-0.078,0.104-0.728,0.324-1.17,0.637c-0.45,0.303-0.716,0.622-0.394,0.477c0.166-0.059,0.48-0.236,1.076-0.385   c0.578-0.138,1.522-0.254,2.599,0.202c0.987,0.378,1.711,1.127,2.087,1.835c0.392,0.726,0.518,1.486,0.495,2.151   c-0.033,0.667-0.194,1.243-0.441,1.736c-0.132,0.259-0.245,0.455-0.448,0.721c-0.402,0.487-0.794,0.959-1.179,1.425   c-3.072,3.727-5.734,7.023-11.566,13.545c1.75-2.303,4.87-6.101,8.736-10.633c0.971-1.13,1.983-2.309,3.029-3.525   c0.263-0.303,0.527-0.608,0.794-0.916l0.193-0.239l0.139-0.202c0.174-0.274,0.325-0.56,0.428-0.869   c0.445-1.225,0.215-2.752-0.627-3.78c0,0,0.123,0.164,0.258,0.433c0.135,0.268,0.271,0.645,0.342,1.038   c0.064,0.394,0.063,0.794,0.025,1.085c-0.038,0.292-0.092,0.477-0.092,0.477c0.007-0.402,0.02-1.18-0.362-1.999   c-0.347-0.794-1.21-1.661-2.292-1.921c-1.098-0.3-2.38,0.028-3.165,0.789c-2.059,2.264-3.976,4.373-5.508,6.058   c10.369-12.336-5.171,5.485-10.397,10.64c-0.555,1.313,6.313-6.419-1.583,2.903c3.827-4.251,6.021-6.688,8.474-9.413   c1.235-1.354,2.537-2.781,4.142-4.541c0.807-0.877,1.688-1.837,2.677-2.913c0.495-0.537,1.017-1.103,1.568-1.702   c0.138-0.149,0.277-0.301,0.42-0.455l0.193-0.207l0.074-0.072c0.1-0.097,0.205-0.187,0.319-0.268   c-0.12,0.092-0.236,0.188-0.341,0.302c0,0-0.218,0.231-0.366,0.396l-0.466,0.514c-0.615,0.681-1.208,1.338-1.782,1.973   c-1.139,1.277-2.198,2.465-3.188,3.577c-1.972,2.231-3.648,4.171-5.122,5.909c-2.948,3.475-5.085,6.14-7.143,8.709   c-4.114,5.138-7.911,9.889-17.244,19.956c8.313-9.543-3.453,2.828-4.641,3.808c-3.944,4.462-11.947,13.511-15.187,17.279   l3.511-2.89c-10.49,12.078-15.269,15.251-27.108,29.431c-1.307,2.052,10.97-11.972,8.805-9.453   c-16.592,19.048-23.488,25.082-38.877,41.405c-0.698,1.078-0.206,1.169-5.192,7.235c1.35-2.102-2.689,2.072,2.997-4.682   c-5.146,5.456-10.871,12.254-15.182,17.274c10.624-11.438-3.843,5.134-5.588,7.433c-5.464,5.962,1.35-2.101,4.592-5.875   c-4.425,4.75-10.03,10.081-12.048,13.226c-0.244-0.048,2.585-3.605,6.471-8.278c3.886-4.672,8.829-10.46,12.815-14.967l-5.48,5.981   c3.579-4.298,4.325-5.034,9.765-10.973c-5.521,5.636-5.271,4.814-4.268,3.247c0.737-0.726-0.31,0.495,0.396-0.198   c4.421-4.745,7.664-8.519,6.489-7.553c3.479-4.714-6.285,6.443-9.438,9.516c-2.194,2.493-4.389,4.985-6.539,7.429l-21.187,26.259   c-2.435,2.785-4.552,5.152-6.479,7.266c-3.14,3.416-5.933,6.454-8.607,9.364c-3.428-1.987-6.711-3.892-10.114-5.865   c-1.969-1.175-4.006-2.39-6.263-3.736l-2.832-1.014c-10.919-6.135-21.17-12.018-13.854-8.657c0.314,0.362,1.778,1.133,4.143,2.476   c0.347,0.116,0.918,0.38,1.628,0.731c0.245,0.095,0.381,0.147,0.584,0.227c-11.801-6.377-19.168-10.357-19.847-10.725   c20.246,10.451,1.427-0.226,5.181,0.866l-20.238-10.938c12.049,7.021,0.016,0.496-4.366-1.807   c-0.955-1.093-16.189-9.005-23.209-12.991l0.568,0.202c-1.62-0.931-3.544-2.037-5.646-3.244c-0.528-0.298-1.067-0.602-1.615-0.911   c-0.274-0.154-0.551-0.31-0.83-0.466c-0.265-0.145-0.351-0.193-0.542-0.28c-0.667-0.307-1.404-0.484-2.163-0.505   c-1.521-0.044-3.087,0.587-4.112,1.659c-0.26,0.265-0.491,0.554-0.691,0.862c-0.318,0.514-0.632,1.021-0.941,1.52   c-0.661,1.078-1.3,2.121-1.909,3.114c0.365-0.272-5.328,10.264-7.98,15.376c8.677-13.423,3.786-5.294,4.726-6.216   c-0.905,1.385-2.496,3.897-2.627,4.224c-1.102,2.01,1.813-2.527,2.19-2.822c2.221-3.621,4.458-7.268,6.621-10.793   c0.541-0.881,1.077-1.755,1.607-2.62l0.284-0.459c0.041-0.073,0.092-0.138,0.137-0.206c0.093-0.135,0.203-0.251,0.312-0.367   c0.443-0.453,1.024-0.768,1.632-0.909c0.608-0.141,1.215-0.118,1.762,0.042c0.138,0.039,0.273,0.086,0.406,0.143l0.1,0.042   c0.016,0.002,0.156,0.08,0.228,0.116l0.522,0.271c0.692,0.355,1.36,0.699,2,1.028c2.566,1.307,4.72,2.355,6.317,3.048   c-2.204-1.404-4.182-2.419-6.233-3.462c-0.513-0.261-1.03-0.524-1.558-0.793c-0.494-0.252-1.203-0.63-1.288-0.649   c-0.453-0.191-0.933-0.326-1.499-0.404c0.413-0.046,0.849-0.002,1.292,0.12c0.111,0.032,0.221,0.071,0.333,0.113l0.167,0.072   c0.034,0.009,0.232,0.118,0.341,0.172c0.519,0.271,1.046,0.547,1.583,0.828c2.144,1.129,4.42,2.36,6.844,3.69   c4.833,2.689,10.288,5.725,16.454,9.156l3.844,2.609l12.52,6.713c-5.286-2.693-2.376-0.583-15.438-7.759   c1.474,1.263,12.957,7.109,20.867,11.661l4.343,1.793c-1.718-0.608,15.32,8.94,2.993,2.554l-19.945-10.59l5.302,3.377l-16.729-9.19   l4.073,1.943c-13.489-7.291-15.332-8.626-17.213-9.945c-0.941-0.66-1.891-1.315-4.312-2.708c-1.21-0.697-2.788-1.578-4.916-2.737   c-1.419-0.781-1.396-0.753-1.921-0.869c-0.443-0.07-0.971-0.054-1.501,0.154c-0.313,0.182-0.581,0.409-0.796,0.66   c-0.108,0.126-0.204,0.26-0.29,0.401l-0.121,0.221l-0.055,0.116l-0.214,0.371c-1.319,2.274-2.754,4.674-4.365,7.305   c-3.221,5.261-7.146,11.448-12.257,19.407c7.173-11.658,0.356-1.438,2.779-5.998c-7.677,11.665-9.73,15.942-13.374,22.206   c-2.19,2.823-3.78,4.812,2.913-5.713c0.216-1.711-8.641,13.947-9.883,14.509c-9.377,14.897-13.596,22.42-17.41,29.279l-0.356,0.642   l-0.568,0.977l-1.393,2.359c-0.946,1.597-1.895,3.199-2.864,4.834c-2.004,3.339-4.087,6.81-6.38,10.628   c-4.663,7.689-10.365,16.92-17.928,28.89c0.011-9.639,0.077-21.459,0.216-35.453l0.303,3.047   c-0.061-11.682-0.115-22.126-0.165-31.899c-0.005-6.416-0.009-12.391-0.014-18.294c0.014-11.808,0.044-23.332-0.075-37.533   l0.771-22.362c0.118,5,0.694,18.447,1.065,12.171c-0.779,10.877-0.507,22.421-0.925,34.141c0.202,1.196,0.349-3.575,0.474-5.654   c-0.007,7.073-0.356,10.622-0.221,19.963c0.161-0.45,0.354-10.642,0.449-2.961l-0.479,12.707   c0.114,8.501,0.401,10.595,0.632,13.059c0.058,0.616,0.112,1.256,0.159,2.024c0.02,0.384,0.042,0.801,0.065,1.263   c0.016,0.739,0.033,1.551,0.052,2.456c0.059,3.798,0.075,9.09,0.02,17.522c-0.214-2.793-0.476-7.326-0.697-13.088   c-0.05-1.456-0.103-2.967-0.157-4.521c-0.023-0.76-0.046-1.53-0.07-2.309c-0.021-0.455-0.042-0.915-0.063-1.379   c-0.079-1.856-0.137-3.78-0.163-5.713c-0.093,9.125-0.259-12.165-0.515-3.837c0.159,3.286,0.246,6.147,0.294,8.864   c0.01,0.679,0.02,1.349,0.03,2.015c0.006,1.176,0.012,2.344,0.018,3.511c0.004,2.424,0.008,4.845,0.012,7.327   c0.005,4.96,0.009,10.168,0.015,16.138c0.019,5.935,0.062,12.593,0.161,20.209c-0.088-3.447-0.212-4.08-0.251-11.923   c-0.033,5.867-0.066,11.734-0.066,17.488l15.813-24.712c-3.125,4.612,2.109-3.886,7.606-12.84c1.367-2.231,2.763-4.51,4.07-6.645   c0.394-0.661,0.774-1.3,1.132-1.901c0.313-0.539,0.607-1.044,0.875-1.503c1.058-1.842,1.64-2.964,1.209-2.538   c-3.86,6.063-6.752,10.605-9.078,14.257c-2.944,4.668-5.17,8.196-7.185,11.391c-4.028,6.394-7.212,11.445-13.605,21.591   c0.028-5.981,0.069-14.744,0.126-26.968c0.069,8.288,0.272,17.499,0.527,24.703c3.819-6.444,7.022-11.976,9.088-15.684   c0.219-0.308,0.59-0.864,1.394-2.12c2.057-3.775,2.007-4.021,1.561-3.73c-0.461,0.312-1.318,1.154-1.156,0.004   c-3.158,5.389-6.121,10.263-8.951,14.83c-0.048-6.071-0.023-12.202-0.021-18.761c0.002-6.574-0.018-13.599-0.155-22.016   c-0.065-0.39-0.125-0.531-0.178-0.465c-0.027,0.032-0.052,0.117-0.076,0.25c-0.01,0.066-0.021,0.144-0.035,0.232   c-0.01,0.128-0.021,0.271-0.033,0.43c-0.084,1.323-0.147,3.688-0.189,6.617c-0.084,5.854-0.086,13.952-0.019,20.07l-0.346-22.078   l0.24,4.316l0.175-40.323c0.028,7.026,0.331,9.412,0.559,13.079c0.021-4.784,0.158-9.523,0.31-14.563   c-0.498,1.059-0.85,0.393-0.84-4.274c0.119-23.859,0.566-37.122,1.135-45.927c-0.012-0.915-0.024-1.948-0.035-2.778   c-0.51,4-0.917-16.943-1.439-24.336c0.527,0.366,0.316-12.295,0.586-19.172c-0.605-3.66-1.441,1.223-1.937,9.596   c0.554,16.133,0.559,9.041,1.344,16.662l0.524,25.878l-0.483-5.785c-0.213,12.916,0.425,25.323-0.204,24.375   c-0.419-6.824-0.165-18.093-0.585-24.865l-0.23,8.543c-0.618-15.073,0.595-7.726,0.164-25.977   c-0.534,6.713-0.038-1.653-0.396-9.471c-0.372,6.275,0.152,32.134-0.756,26.65c-0.396-9.491,1.064-31.932,0.162-44.489l0.103,0.615   c0.117-18.525-0.401-25.036-0.728-31.971c0.147-3.942,0.117-8.633,0.046-13.408c-0.04-2.988-0.081-6.003-0.12-8.939   c-0.027-4.382-0.054-8.646-0.079-12.638l0.264,0.669c-0.034-6.89-0.068-13.779-0.068-20.587l1.136,1.076   c-0.352-0.322-0.711-0.651-1.113-1.021c0.184,5.651,0.165,11.763,0.109,18.925c-0.029,3.597-0.06,7.431-0.092,11.483   c-0.008,3.092-0.016,6.351-0.025,9.764l0.491-1.288c-0.583,11.936,0.303,19.897,0.726,29.153   c-0.212-6.736-0.182-16.247-0.219-24.469c-0.054-5.139-0.104-9.875-0.144-13.576c-0.091-5.171-0.236-9.054-0.476-10.76l0.495-13.87   c-0.028-1.16-0.057-2.32-0.057-3.413l2.45,2.276c5.183,5.527,3.6,4.417-1.761-0.613c0.123,4.356,0.217,10.202,0.255,16.989   c-0.124,3.256-0.186,4.959-0.288,3.815c0.112,4.25,0.22,8.33,0.368,13.913c0.108,3.672,0.175,8.336,0.119,15.098l-0.26-7.216   c-0.035,16.838,0.154,32.147,0.637,37.912c0.065-11.542,0.129-22.994,0.193-34.273c0.012-14.82,0.024-29.415,0.036-43.679   c1.304,1.302,2.536,2.533,3.765,3.76c3.21,2.426,7.309,5.912,11.255,9.26c2.062,1.733,3.994,3.357,5.689,4.782   c0.912,0.738,1.759,1.424,2.53,2.047c0.092,0.071,0.213,0.171,0.279,0.216l0.081,0.013c0.054,0.007,0.101,0.02,0.153,0.019   c0.102,0.004,0.193,0.005,0.284-0.011c0.871,0.658,2.311,0.727,3.277,0.03c0.498-0.339,0.896-0.872,1.075-1.418   c0.188-0.564,0.191-1.225-0.003-1.785c-0.093-0.282-0.229-0.539-0.408-0.774c-0.042-0.061-0.093-0.116-0.141-0.174l-0.078-0.083   l-0.056-0.061l-0.143-0.143c-0.38-0.382-0.759-0.763-1.136-1.142c-1.502-1.52-2.975-3.011-4.402-4.454   c-2.844-2.896-5.482-5.622-7.767-8.04l1.008,0.721c-4.515-4.664-8.783-8.854-12.393-12.297c-4.657-5.04,3.704,2.933,0.429-0.549   c0,0-0.984-0.954-2.461-2.385c-0.739-0.716-1.6-1.551-2.523-2.445C81.475,96.3,81,95.84,80.518,95.373   c-0.186-0.171-0.389-0.321-0.6-0.446c-0.839-0.512-1.887-0.584-2.588-0.41c-0.708,0.164-1.086,0.446-1.086,0.446   c0.039-0.151,0.428-0.504,1.187-0.683c0.748-0.179,1.863-0.086,2.79,0.563c0.28,0.209,0.291,0.203,0.974,0.881   c0.54,0.532,1.084,1.069,1.63,1.607c1.09,1.079,2.184,2.161,3.244,3.211c2.117,2.103,4.102,4.074,5.657,5.619   c-1.197-1.142-3.614-3.448-2.9-2.646c3.537,3.673,8.804,8.727,13.521,13.316c2.359,2.294,4.58,4.473,6.378,6.305   c0.899,0.916,1.693,1.745,2.345,2.458c0.327,0.357,0.617,0.685,0.869,0.98c0.055,0.067,0.14,0.162,0.164,0.2l0.049,0.092   c0.033,0.057,0.056,0.114,0.072,0.168c0.319,0.338,0.277,0.36,0.159,0.242c-0.067-0.051-0.167-0.127-0.27-0.206   c-0.048-0.041-0.112-0.069-0.162-0.103l-0.038-0.023l-0.089-0.071c-0.06-0.046-0.116-0.09-0.168-0.13   c-0.427-0.325-0.562-0.354,0.088,0.385c0.171,0.299,0.736,0.828,0.831,2.188c-0.041,0.916-0.367,1.566-0.718,2.048   c-0.378,0.502-0.76,0.817-1.09,1.043c-0.674,0.447-1.141,0.627-1.353,0.737c-0.021,0.055,0.398,0.149,0.997,0.045   c0.602-0.092,1.328-0.424,1.893-0.94c0.571-0.504,0.891-1.094,1.057-1.389c0.146-0.3,0.248-0.264,0.061,0.389   c0.382-0.875,0.414-1.742,0.271-2.479c-0.152-0.741-0.463-1.364-0.92-1.907c-0.11-0.14-0.243-0.266-0.373-0.398   c-0.308-0.302-0.622-0.609-0.944-0.923c-0.643-0.638-1.317-1.308-2.042-2.027c-1.44-1.445-3.062-3.104-4.999-5.131   c1.541,1.53,3.242,3.175,4.974,4.838c0.866,0.831,1.739,1.667,2.603,2.495l0.612,0.588c0.1,0.092,0.193,0.188,0.284,0.286   c0.177,0.199,0.334,0.409,0.471,0.628c0.555,0.874,0.728,1.928,0.607,2.791c-0.114,0.871-0.492,1.526-0.86,1.886   c-1.021,1.691-2.512,2.214-3.493,2.442c-1.013,0.217-1.614,0.185-1.805,0.342c-0.191,0.129,0.02,0.421,0.653,0.665   c0.62,0.239,1.705,0.388,2.917,0.005c-0.331-0.024,0.742-0.295,1.857-1.305c0.562-0.505,1.101-1.2,1.446-1.978   c0.355-0.776,0.526-1.64,0.516-2.405c-0.009-1.555-0.648-2.555-0.689-2.468c-0.037,0.039,0.072,0.331,0.186,1.001   c0.092,0.655,0.199,1.776-0.385,3.144c0.375-1.256,0.312-2.979-0.599-4.378c-0.22-0.35-0.498-0.673-0.812-0.975   c-0.625-0.604-1.263-1.219-1.909-1.843c-1.299-1.261-2.634-2.557-3.987-3.87c-5.404-5.26-11.068-10.811-15.857-15.38l0.496,0.354   c0,0-2.927-2.883-5.854-5.766c-1.463-1.441-2.927-2.883-4.024-3.963c-0.265-0.26-0.507-0.498-0.722-0.708   c-0.103-0.096-0.194-0.177-0.272-0.238c-0.157-0.123-0.249-0.188-0.249-0.188c0.112,0.063,0.239,0.139,0.371,0.232   c0.068,0.044,0.13,0.102,0.202,0.152c0.134,0.122,0.271,0.246,0.41,0.372c0.587,0.535,1.21,1.104,1.784,1.627   c1.153,1.041,2.127,1.88,2.278,1.845c0,0-1.037-0.974-2.593-2.436c-0.742-0.678-1.867-1.811-2.188-1.963   c-0.523-0.347-1.137-0.601-1.782-0.704c-1.308-0.23-2.6,0.205-3.316,0.753c-0.189,0.13-0.345,0.272-0.48,0.4   c-0.066,0.067-0.131,0.125-0.183,0.189c-0.087,0.093-0.167,0.178-0.239,0.254c-0.426,0.454-0.67,0.713-0.67,0.713   c0.418-0.454,0.768-0.834,1.055-1.146c0.165-0.175,0.305-0.299,0.411-0.393c0.213-0.188,0.29-0.252,0.229-0.256   c-0.058,0.002-0.25,0.071-0.515,0.242c-0.132,0.084-0.283,0.193-0.443,0.331l-0.122,0.107c-0.08,0.077-0.161,0.155-0.244,0.235   c-0.179,0.175-0.365,0.357-0.559,0.545c-3.086,3.017-7.797,7.705-9.933,9.692c-1.438,2.01-7.515,8.505-1.319,2.637   c6.988-6.573,3.792-4.102,9.936-10.29l-8.28,9.182l-0.793,0.705l-4.886,5.625c-11.919,11.866,4.337-6.053-10.541,9.547l2.485-1.48   c-1.717,1.695-3.481,3.437-5.279,5.211l-1.11,1.092c-0.137,0.144-0.257,0.295-0.362,0.457c-0.209,0.323-0.361,0.69-0.438,1.089   c-0.158,0.803,0.007,1.675,0.471,2.357c0.495,0.723,1.229,1.22,2.088,1.384c0.867,0.171,1.79-0.023,2.504-0.511   c0.089-0.064,0.178-0.13,0.265-0.201l0.128-0.113l0.546-0.535c0.812-0.801,1.622-1.598,2.427-2.393   c1.604-1.583,3.195-3.152,4.77-4.705c6.227-6.168,12.199-12.083,17.721-17.552c-0.02,9.459-0.003,17.79,0.071,24.87   c-0.202-4.214-0.466-6.93-0.727-7.116c-0.261-0.195-0.521,2.088-0.713,7.616c0.021-5.486,0.051-13.427,0.085-22.268   c-7.48,7.505-15.884,15.937-22.754,22.83c-1.046,0.971,1.47-1.774,5.978-6.5c4.488-4.707,11.03-11.458,17.426-17.896   c-0.006,3.123-0.011,6.218-0.016,9.172c0.234-2.37,0.346-5.908,0.384-10.061c-2.747,2.692-6.07,6.064-9.443,9.519   c-3.333,3.426-6.757,6.946-9.879,10.156c-1.537,1.566-2.999,3.057-4.337,4.422c-0.332,0.334-0.656,0.661-0.972,0.979   c-0.086,0.077-0.163,0.16-0.248,0.225c-0.163,0.141-0.328,0.252-0.488,0.339c-0.643,0.356-1.167,0.341-1.315,0.144   c-1.441,0.283-2.638-0.229-3.38-0.896c-0.784-0.708-1.121-1.486-1.277-2.221c-0.254-1.499,0.156-2.567,0.77-3.41   c0.025-0.032,0.028-0.044,0.071-0.093l0.159-0.175l0.317-0.35l0.635-0.698c0.428-0.466,0.862-0.938,1.313-1.428   c0.907-0.977,1.894-2.02,3.065-3.22c2.343-2.402,5.424-5.436,10.075-9.842c-0.123-0.622,4.967-5.331,5.59-6.612   c-2.985,2.377-9.033,8.436-15.832,15.343c-1.698,1.728-3.445,3.507-5.203,5.295l-0.66,0.671c-0.093,0.097-0.257,0.257-0.292,0.302   l-0.168,0.184c-0.218,0.25-0.407,0.517-0.568,0.797c-0.324,0.561-0.54,1.179-0.638,1.815c-0.2,1.277,0.087,2.586,0.727,3.592   c0.63,1.031,1.611,1.788,2.601,2.18c-0.405-0.124-0.997-0.378-1.476-0.72c-0.491-0.327-0.87-0.721-1.016-0.822   c1.005,1.321,2.351,1.933,3.585,2.093c1.247,0.163,2.372-0.119,3.263-0.609c0.446-0.252,0.846-0.551,1.195-0.91   c0.921-0.941,1.834-1.875,2.76-2.821c1.978-2.035,4.011-4.126,6.274-6.456l-1.159,1.071c6.014-6.286,9.049-9.312,10.751-10.878   c1.719-1.583,2.208-1.811,3.504-2.875c-0.111,1.667-0.212,3.807-0.27,7.153c0.078,4.889-0.074,22.884,0.313,19.902   c0,0-0.031,1.447-0.078,3.618c-0.047,1.449-0.11,3.381-0.172,5.314c-0.125,3.865-0.25,7.729-0.25,7.729l0.588-0.745   c0.034,8.72-0.354,10.628,0.004,18.531l0.526,0.366l0.183-21.656c0.172,10.975,0.504,3.059,0.615,15.119   c-0.577-13.472-0.292,9.53-0.781,10.857l0.296,8.87l-0.14-2.268c-0.271,6.961,0.196,8.288,0.127,16.413   c0.293-9.583,0.663-15.857,0.289-28.068c0.296,8.89,0.625,26.519,0.642,30.846c0.221,9.334-0.181,15.852-0.24,24.584   c-0.211-16.76-1.597,5.87-1.219-27.715c0.101,0.621,0.078,3.34,0.016,4.393c0.673-4.478-0.042-20.133-0.3-27.415   c-0.388,1.876-0.484-5.739-0.698,7.171c0.248-4.236,0.864,10.877,0.546,23.159l-0.829-2.164l-0.098,17.884l-0.039-1.673   c-0.534,6.726,0.104,19.081-0.21,31.396c0.296,8.89,0.061,42.998,0.929,28.324c-0.519,11.053,0.142,20.753,0.254,32.813   l0.338-15.034c0.594,17.773,0.21,12.655,1.154,26.879c-0.227,1.438-0.413,4.608-0.652,1.719   c-0.021,9.142-0.047,19.781-0.071,30.209c0.006,5.214,0.012,10.375,0.018,15.27c0.015,2.447,0.029,4.827,0.042,7.114   c0.005,0.572,0.01,1.139,0.015,1.698l0.004,0.418l0.007,0.198l0.041,0.464l0.074,0.408c0.023,0.115,0.03,0.112,0.113,0.423   l0.059,0.218c-1.187,0.223,2.663-0.474-2.66,0.503l1.224-0.403l1.221-0.41c0.225-0.076,0.062-0.022,0.112-0.04   c-0.002-0.008,0.004,0.012,0.006,0.017l0.024,0.064l0.101,0.267l0.17,0.384c0.099,0.192,0.136,0.271,0.201,0.363l0.191,0.296   l0.073,0.115l0.021,0.032l0.002,0.004c0.122-0.004-1.144,0.117-0.556,0.03l0.202-0.137l0.198-0.134l0.001,0.001l0.009,0.012   l0.068,0.087c0.133,0.172,0.269,0.333,0.32,0.386l0.169,0.17c0.059,0.058,0.08,0.078,0.125,0.115l0.192,0.161l0.167,0.144   l0.051,0.044l0.006,0.005l0.003,0.003c-3.108,2.982-0.849,0.814-1.538,1.474l0.085-0.089l0.169-0.178l0.667-0.718l0.328-0.361   l0.163-0.182c0.072-0.084,0.027-0.018,0.047-0.034l0.052,0.037l0.103,0.074l0.115,0.077l0.063,0.038   c0.233,0.139,0.505,0.259,0.682,0.331l0.349,0.115c0.157,0.046,0.184,0.056,0.308,0.073l0.163,0.035l0.013-0.004   c0.002,0.001,0.019,0.002,0.05,0c0.155,0.019,0.308,0.037,0.458,0.055c0.111,0.001,0.221,0.001,0.328,0.002   c0.121-0.006,0.24-0.012,0.356-0.018c0.444-0.02,0.872-0.039,1.282-0.058c16.832,0.037,19.473,1.014,43.089,0.63   c4.975-0.116-3.876-0.774,11.76-0.536c1.052,0.061-15.054,0.613,2.359,0.549c12.4-0.639,29.127,0.352,45.26-0.201   c8.517,0.23,23.297,0.143,20.218,0.648c-13.492-0.115-32.585-0.01-35.494,0.232c1.863-0.305-9.596-0.295,0.346-0.529   c-20.394-0.383-13.237,0.313-31.533,0.051c-1.262,0.203,9.406,0.559,13.328,0.379c0.085,0.688-36.076,0.332-19.813,1.159   c19.551,0.06,25.355-1.378,42.299-0.651c-6.792,0.419-17.414,0.064-26.042,0.787l13.923,0.277l10.105-0.498l-0.601,0.102   c24.591,0.631,22.748-0.709,44.75-1.055c-12.746-0.479,2.948-1.195-6.641-1.488c14.714-0.088,25.519,0.004,25.617,0.693   c-27.526,0.563-1.562,0.729-27.009,1.416c4.177,0.248-6.06,1.01,9.105,1.086c17.087-0.492-5.112-0.574,11.929-0.803   c1.007,0.063,2.053,0.125,1.458,0.225c7.837-0.357,9.145,0.13,18.629-0.266l-2.249,0.138c11.694,0.419,12.792-0.474,22.859-0.019   c-4.027-0.512,6.759-0.42,13.001-0.738c-10.204-0.193-15.728-0.928-35.86-0.888c-2.432,0.405-0.961,0.63-9.23,0.825l13.086-0.049   c-2.823,0.094-4.975,0.165-7.563,0.252l-12.57-0.211c15.936-0.289,8.628-0.721,15.4-1.143c14.583,0.178,12.034-0.111,21.205,0.021   c-0.922,0.594,28.121,1.014,44.913,1.396c-2.608-0.009-5.975-0.019-7.791-0.023c-12.197,0.375,8.393,0.494,8.844,0.658l8.89-0.297   c-1.673,0.041-3.987,0.18-0.196,0.264c12.034-0.111,11.335-0.699,23.35-0.811c0.901,0.326-9.256,0.822-1.785,0.994   c2.575,0.285,10.779,1.045,26.741,0.756c1.131-0.125,5.269-0.195,10.066-0.25c-0.666,0.018-1.503,0.031-1.804,0.055l10.603,0.355   c-9.034,0.559-18.27-0.263-27.35,0.297l-0.771,0.531c-7.065,0.002-16.661,0.23-21.074,0.506c10.772,0.09,13.041-0.05,25.088-0.16   c1.687,0.336-6.798,0.584-8.021,0.621l1.798-0.303c-14.367-0.439-21.479,0.508-39.363,0.41c-2.7-0.021-1.053-0.061-0.451-0.162   c-14.479,0.514-28.683-0.189-42.757,0.488l4.589-0.279c-9.582,0.255-28.316,0.753-47.037,1.252l-0.15,0.206   c2.079,0.124-4.948,0.116-8.72,0.032l0.02-0.002c-9.387,0.239-18.407,0.47-25.787,0.658c2.359,0.127,5.379,0.234,8.844,0.264   c2.935-0.242,20.14-0.045,17.78-0.594c7.949,0.332,20.754-0.145,26.591,0.064c-10.635-0.354,7.406-0.52,9.269-0.824   c3.575,0.348,15.76-0.025,14.368,0.441c2.098,0.121-5.224-0.311-9.747-0.03c-11.138,0.436,20.395,0.384,6.518,0.798   c17.648-0.328,40.906-0.186,59.11-0.617l-10.19-0.19c8.093,0.068,27.245-0.036,28.677,0.19c-6.014,0.041-13.041,0.089-20.734,0.143   c-0.373,0.527,18.485-0.004,19.342,0.322l22.342-0.873l-9.785-0.029c6.164-0.32,26.624,0.066,41.789,0.141   c-8.7,0.721-22.878,0.018-38.834,0.308c-11.59,0.274,7.157,0.696-3.812,0.87c2.844,0.168,10.001,0.148,13.531-0.033l4.327,0.131   c-9.785,0.656-31.723,0.51-46.325,1.074c1.281-0.07,2.399-0.145,2.805-0.221c-11.243-0.255-22.663-0.244-33.625-0.07   c5.798,0.207,8.093,0.066,11.406-0.01c0.412,0.162-9.936,0.232-13.851,0.412c10.197,0.191,1.902,0.387,8.354,0.494   c-6.642,0.156-12.021,0.111-20.113,0.043c-4.196-0.248,3.471-0.342,2.615-0.666c-8.335,0.195-12.146-0.582-24.343-0.207   c16.224,0.137-4.275,0.707-9.864,0.925l2.719,0.022c-5.145,0.381-9.511,0.396-13.067,0.049c6.641-0.156,13.067-0.049,11.178-0.436   c-4.386,0.016-8.759,0.033-13.727,0.149l4.517-0.28l-21.799,0.082c-3.452,0.342-9.217,0.824-12.237,1.328   c-5.229-0.311-12.511-0.053-17.472,0.066l2.307-0.143c-9.615-0.291-31.01-0.047-32.814,0.256c-6.87-0.271,48.561-1.926,0-1.645   c-18.459,0.002-11.498,0.965-22.035,1.299c0,0,0.595-0.1-0.451-0.162c-8.079-0.07-8.89,0.297-15.531,0.451   c4.844,0.146,11.864,0.154,14.126,0.014c-2.432,0.404-16.826-0.035-23.016,0.283c8.034-0.623-15.616-0.238-9.38-0.557   c-7.436-0.186-15.11-0.18-22.034-0.074c-1.731,0.032-3.415,0.064-5.037,0.096c-0.427,0.009-0.85,0.017-1.269,0.025   c-0.647-0.001-1.176-0.033-1.762-0.099l-0.733-0.102c-0.322-0.038-0.663-0.105-1.011-0.196l-0.358-0.084l-0.138-0.031l-0.303-0.087   c-0.308-0.089-0.553-0.173-0.809-0.261c-2.207-0.8-3.813-1.811-5.396-3.252l-0.522-0.517c-0.143-0.145-0.36-0.361-0.517-0.551   c-0.36-0.423-0.552-0.653-0.833-1.016l-0.119-0.159l-0.029-0.04l-0.18-0.274l-0.022-0.031l-0.122-0.18   c-0.116-0.179-0.231-0.355-0.345-0.53c-0.128-0.204-0.242-0.413-0.352-0.621c-0.097-0.185-0.192-0.367-0.287-0.548   c-0.121-0.265-0.237-0.519-0.349-0.764c-0.101-0.243-0.198-0.478-0.291-0.705l-0.059-0.147l-0.036-0.093l-0.024-0.066l-0.122-0.408   l-0.069-0.217c-0.041-0.127-0.123-0.398-0.191-0.656c-0.048-0.268-0.09-0.597-0.112-0.792c-0.01-0.141-0.065-0.505-0.082-0.759   c-0.039-0.635-0.038-0.881-0.043-1.486c0.03-0.714,0.059-1.42,0.088-2.121c0.051-1.303,0.082-2.587,0.098-3.877   c0.033-2.58,0.006-5.183-0.033-7.997c-0.079-5.629-0.209-12.106-0.029-20.954c-0.023,2.72,0.094,7.654,0.01,11.459   c0.496,10.086,0.26-18.335,0.712-2.811c-0.078-3.321-0.263-0.235-0.185,3.17c0.056,5.955,0.274,11.563,0.5,10.066l0.438-14.42   l0.12,5.033l0.606-21.885c-0.1-0.595-0.223,1.458-0.285,2.511c0.266-25.382-0.072-54.405,0.008-76.643   c-1.397-4.177-0.6-54.744-1.458-72.713c0.402,4.817,1.109,7.452,1.4,4.471c0.059,4.007,0.623,12.21,0.506,21.296   c-0.225,1.451-0.478,12.674-0.735,5.451c0.16,25.114,0.613-3.399,1.133,4.014c-0.136-27.827-0.955-44.148-1.285-61.712l0.165-0.444   l-0.313-13.263c-0.093,10.838-0.885,10.302-0.607-3.667l0.039,1.7c0.063-1.513,0.1-3.336,0.119-5.382   c0.003-1.33,0.006-2.805,0.01-4.369c-0.036-2.174-0.075-4.593-0.113-6.942c-1.124,1.155-2.192,2.242-3.181,3.214   c0,0-0.682,0.844-1.363,1.688c-0.601,0.763-1.202,1.525-1.202,1.525c-0.233,0.224-0.452,0.434-0.658,0.631   c-0.132,0.124-0.261,0.245-0.389,0.364c-0.179,0.171-0.365,0.33-0.551,0.483c-0.368,0.311-0.744,0.591-1.119,0.844   c-1.5,1.023-2.989,1.616-4.32,1.971c-2.688,0.677-4.731,0.458-6.268,0.111c-1.546-0.374-2.637-0.905-3.618-1.501   c-0.979-0.6-1.856-1.285-2.849-2.237c-2.561-2.071-4.206-4.969-4.785-7.893c-0.59-2.93-0.19-5.877,0.939-8.375   c0.566-1.25,1.308-2.388,2.171-3.38l0.623-0.673l0.494-0.515c0.327-0.342,0.65-0.682,0.972-1.018   c1.277-1.351,2.51-2.655,3.712-3.927c4.775-5.12,9.069-9.724,13.803-14.801c1.175-1.043,3.354-3.116,5.794-5.46   c1.218-1.174,2.505-2.414,3.764-3.627c0.629-0.607,1.252-1.208,1.856-1.79c0.493-0.48,1.448-1.42,2.328-2.011   c1.791-1.262,3.657-1.927,5.122-2.229c1.473-0.303,2.553-0.288,3.012-0.255c0.461,0.04,0.312,0.064-0.612,0.148   c-0.907,0.118-2.659,0.273-5.06,1.439c2.727-1.322,5.386-1.592,7.646-1.382c2.276,0.217,4.204,0.915,5.823,1.818   c0.811,0.455,1.544,0.967,2.215,1.524c0.502,0.416,0.992,0.822,1.479,1.226c0.913,0.762,1.818,1.519,2.797,2.338   c3.885,3.317,8.756,7.875,19.053,18.952l-5.801-5.293c4.107,4.06,8.564,8.465,13.14,12.988l0.861,0.847l0.432,0.425l0.595,0.621   c0.792,0.877,1.485,1.856,2.054,2.907c1.133,2.107,1.736,4.496,1.748,6.89c0.011,2.394-0.567,4.799-1.69,6.931   c-1.126,2.139-2.752,3.958-4.721,5.313c-3.95,2.752-9.153,3.325-13.496,1.708c-1.087-0.397-2.126-0.916-3.081-1.546   c-0.475-0.318-0.936-0.654-1.368-1.019c-0.217-0.182-0.431-0.366-0.633-0.561l-0.384-0.365c-0.445-0.428-0.883-0.849-1.312-1.261   c-1.698-1.636-3.183-3.081-4.468-4.369c-0.002,1.846-0.034,3.238-0.109,4.225c-0.322-1.42-0.565-1.494-0.769-0.197   c-0.102,0.638-0.193,1.593-0.28,2.791c-0.01,0.151-0.021,0.305-0.032,0.46c-0.011,0.18-0.021,0.245-0.032,0.617   c-0.02,0.614-0.041,1.245-0.063,1.889c-0.039,1.289-0.08,2.633-0.123,4.008c-0.324,10.999-0.646,23.972-1.278,26.541   c0.289-1.431,0.385,9.426,0.539,11.008c-0.148,2.379-0.292,6.341-0.031,10.544c0.254-11.27,1.312,7.922,0.802-13.623   c0.866,10.903,1.543,24.95,1.5,48.835l-0.527-0.36l0.16-18.897c-0.389,1.909-0.359-7.818-0.539-11.805   c-0.296,35.154-1.234-4.602-1.165,31.337c0.342,3.471,0.201,1.222,0.336,10.563c-0.018-4.393-0.381-5.184-0.388,1.896l0.421,6.798   c-0.879,12.551-0.572-20.773-1.19-10.066c-0.414-13.877-0.635-37.913-1.308-33.435c-0.244,22.663,1.26,20.388,0.955,44.083   l-0.287,2.523c0.195,8.334,0.659,9.68,0.939,14.244c-0.163,0.411-0.285,2.529-0.332,7.883c0.678,14.073,0.811,23.414,1.55,36.396   c-0.555-34.552,0.515-29.539,0.021-65.203c0.219,5.589,0.379,30.696,1.107,32.239l-0.528-0.333   c0.274,11.596,0.546,23.186,0.372,37.749l-0.297-8.89c0.077,4.018,0.086,7.754,0.062,11.288c-0.02,0.832-0.039,1.64-0.058,2.43   c-0.029,0.796-0.057,1.573-0.085,2.336c-0.121,3.089-0.25,6.469-0.127,9.017c0.675-1.164,1.379-2.449,2.06-3.805   c-0.645,0.978-1.222,1.88-1.752,2.738c-0.009-0.908-0.032-1.654-0.071-2.273c0.042,0.681,0.074,1.395,0.1,2.176   c2.14-3.613,4.306-6.958,6.465-10.247l10.943-18.997c0.117,0.306,7.679-11.664,4.391-5.662   c8.917-13.396,12.294-20.229,17.14-28.163c9.257-13.637-7.396,12.205-7.641,13.96c6.153-9.535,12.39-19.42,17.891-28.306   c2.751-4.443,5.318-8.637,7.599-12.413c0.569-0.945,1.121-1.863,1.655-2.751l0.199-0.332l0.291-0.458   c0.202-0.309,0.416-0.607,0.637-0.896c0.44-0.58,0.927-1.11,1.431-1.602c2.033-1.965,4.45-3.166,6.734-3.726   c-3.359,0.709-5.521,2.278-6.776,3.33c-1.259,1.087-1.722,1.7-1.672,1.509c0.196-0.17,0.874-0.991,2.082-1.971   c1.198-0.981,2.971-2.082,5.124-2.745c2.144-0.675,4.652-0.872,6.997-0.46c1.17,0.205,2.294,0.544,3.311,0.977   c0.506,0.214,0.996,0.461,1.435,0.702c0.303,0.169,0.596,0.332,0.874,0.487l3.228,1.404c7.307,4.332,6.164,3.926-0.274,0.64   c7.062,4.006,15.836,8.134,22.901,12.632c-6.155-3.189-13.047-7.009-19.205-10.443c-1.54-0.859-3.033-1.692-4.458-2.487   c-0.712-0.397-1.408-0.784-2.082-1.16c-0.338-0.187-0.67-0.372-0.998-0.553c-0.204-0.109-0.406-0.218-0.606-0.326   c-0.233-0.126-0.474-0.235-0.711-0.344c-1.908-0.863-3.861-1.226-5.596-1.25c-1.742-0.029-3.27,0.277-4.502,0.676   c2.489-0.774,5.02-0.802,7.281-0.311c1.131,0.251,2.198,0.629,3.176,1.103c0.24,0.125,0.479,0.248,0.716,0.371l0.484,0.269   c0.32,0.178,0.635,0.354,0.946,0.527c2.487,1.389,4.683,2.639,6.702,3.806c4.039,2.334,7.372,4.334,10.918,6.451   c7.093,4.232,15.039,8.925,31.186,17.662c0.314,0.363-5.272-2.381,0.905,1.063c14.381,7.858,4.084,1.465,8.742,3.621   c-11.127-5.949-16.155-8.986-22.341-12.924l3.077,1.394c0.375,0.375,7.294,4.234,9.265,5.491l2.058,0.496   c-1.127,0.091,9.715,6.672,18.534,11.311c-8.575-5.292-6.21-3.949-8.256-5.905c6.285,3.11,9.657,5.177,13.216,7.342   c1.779,1.083,3.606,2.19,5.867,3.465c1.13,0.638,2.37,1.316,3.766,2.056c0.7,0.364,1.438,0.749,2.217,1.155   c0.196,0.1,0.395,0.201,0.596,0.304c0.185,0.094,0.477,0.235,0.477,0.235c0.133,0.051,0.27,0.104,0.41,0.158   c-0.047,0.003-0.147-0.025-0.285-0.074c-0.087-0.036-0.104-0.031-0.273-0.113c-0.253-0.128-0.524-0.267-0.807-0.409   c-1.127-0.578-2.421-1.241-3.354-1.72c-1.869-0.946-2.313-1.105,2.824,1.842c0.622,0.343,1.17,0.645,1.655,0.912   c0.264,0.138,0.493,0.251,0.693,0.344c0.402,0.187,0.688,0.291,0.915,0.354c0.239-0.376,0.397-0.682,0.582-1.006   c0.092-0.161,0.19-0.327,0.308-0.507c0.058-0.087,0.121-0.18,0.19-0.281c0.034-0.049,0.07-0.099,0.108-0.151   c0.134-0.156,0.272-0.32,0.418-0.491c-0.08,0.104-0.158,0.204-0.235,0.303c-0.068,0.09-0.178,0.225-0.169,0.229   c-0.035,0.066-0.068,0.13-0.101,0.191c-0.066,0.131-0.127,0.25-0.184,0.36c-0.12,0.253-0.219,0.461-0.306,0.644   c-0.207,0.464-0.356,0.797-0.532,1.191c-0.393,0.026-0.93-0.013-2.515-0.584c-7.575-4.175-9.103-5.017-10.587-5.836   c-1.504-0.809-2.965-1.594-10.465-5.627l12.38,7.396c-12.938-7.104-9.67-4.697-10.83-5.113   c17.304,10.121,18.9,10.115,22.347,11.753c0.354-0.435,0.745-0.902,1.2-1.424c0.229-0.258,0.473-0.532,0.734-0.827   c0.33-0.361,0.682-0.747,1.058-1.159c1.242-1.513,1.224-1.566,0.622-0.942c-0.44,0.473-1.333,1.433-2.156,2.317   c-1.229,1.332-2.14,2.31-0.065-0.272c0.972-1.074,1.728-1.91,2.324-2.57c0.77-0.874,1.333-1.515,1.763-2.003   c0.847-0.988,1.137-1.388,1.458-1.836c0.642-0.897,1.411-1.992,7.023-8.391l-1.729,2.278c3.713-3.658,6.872-7.736,10.862-12.244   c4.315-5.025-6.367,4.354,11.829-15.896c-0.784,1.088-1.043,1.514-0.998,1.555l-14.516,22.67   c18.456-20.501,39.824-44.036,61.425-67.572c5.674-5.015-14.735,17.413-13.14,16.22l-9.883,10.708   c0.276-0.851,20.349-22.754,11.063-13.409c-17.027,19.29-25.151,27.683-40.932,46.319c5.714-5.058,21.404-23.986,32.525-35.337   c-4.504,4.916-8.201,9.161-11.768,13.303c10.063-11.002,20.834-22.776,32.283-35.292l2.396-2.97   c-7.736,8.418-13.088,14.242-13.778,14.993c10.202-11.211,18.407-21.029,18.613-22.198l-1.819,1.986l3.521-4.201   C353.398,186.965,355.808,184.35,358.205,181.749z M433.836,366.036c0.696,0.61,1.296,1.111,1.814,1.505   C435.117,367.137,435.406,367.51,433.836,366.036z M140.209,267.324c5.43-8.496,10.882-17.029,16.281-25.478   c1.255-1.763,3.193-2.991,5.294-3.396c2.123-0.411,4.269-0.034,6.17,1.127c4.321,2.433,8.606,4.844,12.838,7.227   c-3.753-2.269-7.367-4.454-10.719-6.481c-0.83-0.501-1.644-0.993-2.44-1.473c-0.731-0.426-1.511-0.73-2.298-0.931   c-1.578-0.404-3.186-0.341-4.607,0.03c-1.426,0.376-2.664,1.061-3.639,1.876c-0.998,0.813-1.661,1.749-2.276,2.641   c-1.232,1.739-2.143,2.983-2.655,3.615c-1.025,1.263-0.458,0.073,2.317-4.525c0.678-1.181,1.755-2.555,3.41-3.617   c1.637-1.06,3.884-1.826,6.455-1.639c1.277,0.094,2.621,0.437,3.907,1.082c1.199,0.659,2.464,1.355,3.797,2.088   c2.644,1.469,5.557,3.088,8.754,4.864l3.391,1.784c-3.305-1.926-7.836-4.497-12.902-7.33c-0.634-0.354-1.275-0.712-1.924-1.074   c-0.622-0.352-1.366-0.771-2.131-1.039c-1.535-0.569-3.229-0.783-4.894-0.598c-1.666,0.184-3.296,0.765-4.709,1.688   c-1.409,0.912-2.604,2.211-3.418,3.606c-2.469,4.376-7.689,13.626-12.27,21.746c-2.271,4.07-4.385,7.856-5.919,10.606   c-0.758,1.381-1.373,2.501-1.793,3.267c-0.415,0.77-0.629,1.187-0.591,1.159c2.19-2.823,4.633-7.411,8.169-12.823L140.209,267.324z    M130.783,278.374c-6.227,9.62-4.603,7.561-5.341,9.197c2.124-3.429,4.244-6.853,6.34-10.236   C130.917,278.59,130.442,279.178,130.783,278.374z M126.017,287.123c0.691-1.087,1.287-2.01,1.622-2.479L126.017,287.123z    M293.12,255.447c-0.337,0.383-0.457,0.521-0.776,0.884c1.825-1.998,3.655-4,5.564-6.09   C297.144,251.03,295.721,252.564,293.12,255.447z M277.101,272.319l-1.482,2.324c1.701-1.863,3.438-3.766,5.215-5.711   C280.099,269.441,279.357,269.996,277.101,272.319z M217.927,263.378c-4.383-1.815-18.189-9.471-19.34-9.391   c-0.958-0.348,1.913,1.32,5.144,3.177c3.625,2.036,7.495,4.21,11.598,6.515c0.188-0.001,1.046,0.379,2.451,1.067   c-4.023-2.329-6.66-3.976-4.827-3.397c10.031,6.547,9.647,4.683,20.829,11.152C237.59,274.112,221.435,265.126,217.927,263.378z    M163.854,392.926c0.366,0.055,1.628,0.197,3.399,0.372l-9.099,0.312c-16.23-0.137-29.232-1.041-43.841-0.264   c-6.837-0.195-10.498-0.609-13.995-0.949c3.347,0.041,6.478,0.079,9.086,0.111C150.363,391.369,130.759,393.708,163.854,392.926z    M68.692,297.561c0.039,1.673,0.142,2.274,0.142,2.274c-1.155-36.266-1.49-66.125-1.446-85.676   c-0.458,3.791-0.812,21.329-1.001,29.657l-0.521-7.38l0.41-4.608l-0.475-12.812c-0.351,3.583-0.277,13.93-0.547,20.846   c0.1,0.601,0.708,22.747,1.03,28.938l0.36-17.695c-0.145,4.778-0.025,28.251,0.109,37.56c0.065,0.046,0.14-0.923,0.206-2.433   s0.123-3.561,0.154-5.681c0.063-4.239,0.021-8.755-0.263-9.765c0.388-1.909,0.392,16.583,0.808,4.89   c0.415,13.857,0.069,35.905-0.123,46.135l-0.652,1.732c-0.253,11.224,0.786,7.583,0.409,20.918   c-0.127-16.395-0.715,2.771-0.764-10.27c-0.246,4.164-0.689,0.085-0.64,13.151c0.863,10.877-0.541,13.773,0.221,24.056   c-0.27,6.869-0.52-7.394-0.635,6.124c0.033,1.082,0.064,2.084,0.093,3.01c0.016,0.463,0.031,0.906,0.045,1.331   c0.008,0.213,0.015,0.42,0.022,0.623c0.004,0.237,0.025,0.53,0.046,0.734c0.038,0.401,0.097,0.937,0.189,1.327   c0.064,0.356,0.191,0.867,0.292,1.165l0.069,0.223l0.015,0.049l0.051,0.171l0.015,0.039l0.05,0.13   c0.063,0.152,0.125,0.302,0.184,0.445c0.146,0.338,0.25,0.547,0.398,0.852c0.192,0.355,0.399,0.761,0.625,1.078   c0.097,0.139,0.191,0.272,0.281,0.402l0.119,0.174l0.085,0.109l0.158,0.193c0.369,0.445,0.819,0.921,1.145,1.195   c0.357,0.336,0.716,0.576,0.929,0.719l0.083,0.054l0.01,0.006l0.078,0.064l0.024,0.014l0.048,0.027   c0.063,0.035,0.124,0.069,0.181,0.101c0.116,0.061,0.221,0.114,0.316,0.163c0.371,0.169,0.663,0.263,0.857,0.267   c0.051,0,0.099,0,0.146,0c0.036,0.007,0.019-0.019,0.098,0.014l0.064-0.007c0.087-0.008,0.176-0.017,0.279-0.026   c-2.284-1.304-3.792-3.303-4.573-4.983c-0.139-0.309-0.242-0.544-0.362-0.847l-0.15-0.398l-0.04-0.108l-0.05-0.169l-0.054-0.19   c-0.07-0.25-0.161-0.553-0.209-0.83c-0.05-0.27-0.107-0.521-0.147-0.808c-0.028-0.265-0.055-0.524-0.082-0.779   c-0.026-0.258-0.033-0.548-0.042-0.759c-0.019-0.454-0.038-0.895-0.056-1.322c-0.09-1.713-0.171-3.243-0.253-4.794   c-0.167-3.103-0.302-6.295-0.238-11.233l0.5,10.964l0.25,5.482c0.042,0.895,0.053,1.875,0.266,2.873   c0.081,0.455,0.241,0.993,0.371,1.395c0.206,0.562,0.374,0.92,0.296,1.524c0.371,0.497,0.794,0.951,1.24,1.378   c-0.34-0.547-0.62-1.083-0.819-1.57c-0.179-0.435-0.332-0.861-0.46-1.271c-0.084-0.288-0.104-0.422-0.162-0.65   c-0.054-0.21-0.089-0.423-0.119-0.629c-0.145-0.807-0.157-1.623-0.146-2.328c0.01-1.416,0.002-2.68-0.017-3.847   c0.024,1.618,0.046,3.12,0.103,4.593c0.081,1.489,0.504,2.868,1.093,3.998c0.628,1.229,1.41,2.15,2.249,2.884   c1.509,1.292,3.216,2.029,4.824,2.315c-1.487-0.353-2.882-1.067-4.004-2.008c-1.136-0.962-2.023-2.143-2.596-3.407   c-0.48-1.043-0.75-2.125-0.844-3.196c-0.087-1.063-0.018-2.141-0.032-3.15c0.018-2.027,0.034-3.87,0.047-5.472   c0.042-3.201,0.107-5.435,0.21-6.237l0.305,1.844c0.279-4.732,0.06-12.446-0.163-16.002c-0.033-11.969-0.458-23.924-0.063-26.539   l0.279,4.543C68.735,317.714,68.697,316.073,68.692,297.561z M86.505,220.695c1.117-8.916,2.104-18.747,1.908-60.359l0.077,3.275   c0.229-6.834,0.209-13.557,0.107-20.399c-0.127-6.638-0.257-13.392-0.394-20.486c2.613,2.534,5.386,5.258,8.248,8.141   c1.419,1.447,2.862,2.918,4.331,4.417c0.741,0.736,1.396,1.526,2.282,2.263c0.864,0.72,1.865,1.292,2.942,1.71   c-1.511-0.475-2.714-1.221-3.659-2.019c-0.818-0.752-1.535-1.412-2.187-2.011c-1.257-1.158-2.238-2.05-3.217-2.916   c-0.976-0.864-1.951-1.706-3.126-2.695c-1.169-0.983-2.547-2.123-4.184-3.438c0.018,0.031,0.036,0.275,0.054,0.521   c-0.004-0.14-0.008-0.28-0.008-0.411l7.203,6.766c-1.07-0.64,0.3,0.833,2.542,3.077c0.283,0.282,0.581,0.579,0.891,0.887   c0.155,0.154,0.313,0.311,0.475,0.47c0.196,0.189,0.395,0.382,0.597,0.577c1.025,0.949,2.288,1.767,3.692,2.313   c2.807,1.126,6.128,1.04,8.777-0.059c0,0-0.563,0.296-1.472,0.603c-0.906,0.312-2.178,0.581-3.485,0.613   c-1.306,0.039-2.624-0.17-3.586-0.441c-0.964-0.27-1.578-0.558-1.578-0.558c-0.803-0.434-1.711-1.057-2.598-1.875l-0.327-0.319   l-0.251-0.256c-0.126-0.133-0.255-0.269-0.386-0.407c-0.265-0.277-0.539-0.564-0.818-0.857c-1.145-1.176-2.388-2.454-3.531-3.629   c-2.316-2.35-4.218-4.219-4.033-3.917c0.467,0.435-0.217-0.371-1.707-2.009c-0.13,2.007-0.29,5.675-0.398,9.964   c-0.023,1.083-0.047,2.182-0.07,3.276c-0.015,1.277-0.029,2.55-0.043,3.794c-0.019,2.72-0.014,5.314,0.023,7.57   c0.123-0.327,0.202-2.246,0.265-4.752c0.05-2.272,0.111-5.078,0.165-7.508c0.056-1.981,0.121-3.586,0.223-4.084   c0.102-0.512,0.239,0.125,0.439,2.276c-0.105-2.292-0.129-3.999-0.118-5.386c0.011-1.396,0.058-2.49,0.094-3.753   c1.186,1.246,2.481,2.579,4.415,4.422c-2.307-2.085-2.559-2.118-2.617-1.953c-0.038,0.185,0.117,0.565-0.842-0.161   c0.024,0.197,0.049,0.514,0.074,0.868c-0.004-0.239-0.008-0.478-0.008-0.707l6.673,6.448c0.055,0.17-2.627-2.383-4.36-3.91   c-0.874-0.771-1.514-1.289-1.564-1.189c-0.058,0.092,0.485,0.813,1.781,2.321c0.554,0.463,1.405,1.274,2.355,2.205   c0.477,0.47,0.976,0.963,1.477,1.458l0.754,0.748l0.374,0.371l0.467,0.446c0.189,0.181,0.393,0.345,0.589,0.515   c1.602,1.332,3.45,2.239,5.218,2.73c1.772,0.5,3.464,0.591,4.871,0.478c2.837-0.243,4.479-1.187,4.535-1.318l0.643-0.107   c2.197-1.032,3.672-2.371,4.7-3.569c1.039-1.213,1.639-2.337,2.059-3.276c0.798-1.908,0.933-3.118,1.024-4.417   c0.042-1.298,0.084-2.765-0.572-5.212c-0.343-1.213-0.915-2.673-2.014-4.275c-0.273-0.4-0.587-0.802-0.937-1.207   c-0.17-0.207-0.365-0.4-0.556-0.606c-0.147-0.151-0.299-0.307-0.454-0.466c-0.6-0.618-1.257-1.296-1.98-2.042   c-0.163,0.024,0.283,0.629,1.302,1.75c0.259,0.278,0.55,0.592,0.874,0.94c0.435,0.461,0.889,0.991,1.332,1.607   c0.879,1.233,1.715,2.827,2.191,4.77c0.414,1.637,0.487,2.985,0.441,4.256c-0.062,1.271-0.257,2.485-0.728,3.862   c-0.483,1.362-1.244,2.931-2.745,4.578c-1.479,1.609-3.832,3.412-7.403,4.135c-1.618,0.142-1.335,0.046-0.195-0.146   c1.137-0.204,3.126-0.799,4.763-1.848c1.662-1.013,2.892-2.374,3.292-2.962c0.208-0.292,0.22-0.386-0.014-0.178   c-0.247,0.196-0.729,0.709-1.685,1.434c-0.913,0.708-3.31,2.524-6.77,3.034c-1.704,0.268-3.616,0.2-5.451-0.293   c-1.836-0.481-3.581-1.392-4.968-2.542c-0.339-0.278-0.691-0.604-0.962-0.871c-0.143-0.142-0.283-0.282-0.419-0.417   c-0.271-0.273-0.528-0.532-0.764-0.77c-0.47-0.479-0.857-0.887-1.119-1.187c-0.515-0.593-0.563-0.792,0.379-0.126   c0,0,0.393,0.403,0.983,1.008c0.293,0.301,0.635,0.651,1.001,1.027c0.111,0.112,0.225,0.227,0.34,0.342   c0.188,0.182,0.376,0.367,0.581,0.539c0.399,0.356,0.837,0.68,1.285,0.99c1.809,1.234,3.946,1.899,5.569,2.083   c0.812,0.101,1.497,0.115,1.974,0.098c0.478-0.013,0.75-0.04,0.75-0.04c0.099-0.149,0.96-0.295,2.114-0.691   c1.157-0.377,2.592-1.056,3.812-1.985c1.233-0.914,2.213-2.055,2.8-2.971c0.585-0.92,0.809-1.575,0.681-1.547   c2.313-4.416,1.711-10.006-1.533-13.714c-0.19-0.22-0.43-0.475-0.599-0.65l-0.528-0.543l-1.062-1.086   c-0.715-0.719-1.434-1.44-2.156-2.165c-1.456-1.439-2.954-2.868-4.527-4.278c-2.719-2.236,1.158,2.539-8.519-7.53   c-1.791-2.066-4.561-5.031-7.844-8.446c-1.65-1.699-3.418-3.521-5.25-5.406c-0.46-0.469-0.924-0.942-1.392-1.418   c-0.216-0.223-0.494-0.501-0.792-0.774c-0.295-0.265-0.604-0.517-0.924-0.754c-1.286-0.947-2.787-1.632-4.364-1.986   c-3.154-0.73-6.599-0.069-9.216,1.727c-0.653,0.439-1.268,0.958-1.799,1.492c-0.463,0.464-0.922,0.924-1.375,1.38   c-0.906,0.912-1.793,1.803-2.653,2.668c-3.427,3.47-6.426,6.506-8.541,8.648l-7.212,7.689c0.862-0.404,14.205-14.267,9.719-9.186   l-11.53,11.71l0.753-1.041c-1.941,1.909-3.857,3.887-5.717,5.837c-0.928,0.977-1.845,1.944-2.744,2.892   c-0.449,0.474-0.894,0.944-1.333,1.407c-0.46,0.481-0.914,1.025-1.285,1.581c0.343-0.584,0.899-1.269,1.449-1.847   c0.554-0.591,1.151-1.229,1.764-1.884c1.239-1.297,2.543-2.661,3.686-3.856c2.283-2.394,3.891-4.142,2.864-3.504   c-2.765,2.689-4.392,4.205-5.946,5.686c-0.77,0.747-1.526,1.481-2.408,2.337c-0.443,0.45-0.874,0.839-1.48,1.526   c-0.561,0.652-1.111,1.429-1.581,2.371c0.799-1.665,1.92-2.832,1.694-2.713c-1.611,1.708-2.499,3.647-2.899,5.385   c-0.403,1.75-0.357,3.316-0.13,4.618c0.488,2.621,1.583,4.184,2.457,5.201c0.908,1.018,1.678,1.538,2.408,1.985   c0.74,0.433,1.45,0.801,2.473,1.205c2.069,0.788,3.475,0.739,4.172,0.711c0.709-0.052,0.771-0.136,0.384-0.172   c-0.385-0.06-1.229-0.104-2.31-0.388c-1.078-0.272-2.394-0.793-3.611-1.667c-1.22-0.864-2.324-2.066-3.079-3.409   c-0.761-1.341-1.154-2.797-1.263-4.043c-0.116-1.25,0.035-2.284,0.193-2.915c0.162-0.633,0.301-0.878,0.31-0.619   c0,0-0.045,0.173-0.099,0.504c-0.06,0.329-0.12,0.819-0.137,1.443c-0.03,1.237,0.166,3.081,1.195,4.969   c1.001,1.873,2.882,3.745,5.409,4.624c2.497,0.91,5.56,0.732,8.031-0.646c0.617-0.339,1.196-0.746,1.724-1.206   c0.518-0.454,1.02-0.997,1.53-1.505c1.018-1.031,2.02-2.046,2.989-3.028c1.956-1.981,3.781-3.83,5.346-5.414   c3.164-3.204,5.273-5.34,5.273-5.34c-3.065,3.318-5.871,6.375-4.934,5.757c4.368-4.16,3.558-3.18,4.283-3.807   c-0.051,0.822-0.075,2.611-0.064,8.698c0.376-1.053,0.493,3.592,0.571,10.061c0.078,6.504,0.116,14.542,0.333,20.118   c-0.308,5.21-0.37,6.282-0.379-5.111c-0.488,1.307-0.3,16.603-0.344,22.042c0.08,3.152,0.215,8.523,0.301,11.929   c0.243-4.563,0.549-2.615,0.757,7.262l0.103,0.575c0.133-16.191,0.666-41.357,0.166-51.509l0.242,2.87   c0.052-2.333,0.078-4.716,0.085-7.119c-0.01-2.669-0.02-5.359-0.029-8.034c-0.075-5.305-0.15-10.552-0.219-15.455   c-3.606,3.717-6.836,7.037-9.613,9.794c-1.39,1.38-2.672,2.625-3.847,3.724c-0.597,0.546-1.159,1.06-1.681,1.537   c-0.27,0.237-0.53,0.465-0.78,0.684c-0.268,0.231-0.425,0.346-0.64,0.495c0.137-0.375-0.47,0.193-1.225,0.613   c-0.748,0.44-1.624,0.699-1.587,0.399c0,0-0.161,0.077-0.455,0.182c-0.291,0.112-0.72,0.244-1.249,0.35   c-1.051,0.221-2.539,0.25-3.945-0.167c-1.413-0.39-2.682-1.21-3.487-1.984c-0.811-0.773-1.212-1.413-1.212-1.413   c0,0,0.385,0.495,0.833,0.919c0.446,0.428,0.944,0.782,0.944,0.782s-0.242-0.195-0.617-0.589c-0.375-0.391-0.872-0.993-1.315-1.811   c-0.438-0.817-0.811-1.855-0.944-3.016c-0.142-1.157-0.029-2.426,0.357-3.61c0.377-1.188,1.04-2.275,1.837-3.134   c0.953-0.966,1.842-1.868,2.604-2.642c1.548-1.564,2.58-2.606,2.58-2.606l-0.369,0.509c7.542-8.237,13.449-14.69,18.167-19.844   c-0.144-0.181-0.707,0.282,1.803-2.468c2.579-2.711,4.503-4.753,6.398-6.477c0.014-0.014,0.014-0.014,0.013-0.015l0.002,0.002   c2.31-1.837,4.917-2.379,7.437-2.055c1.267,0.173,2.54,0.588,3.762,1.313c0.61,0.363,1.206,0.804,1.771,1.333   c0.55,0.529,1.125,1.169,1.74,1.797c0,0-0.242-0.241-0.665-0.662c-0.435-0.42-0.998-1.046-1.79-1.63   c-0.796-0.583-1.822-1.147-3.011-1.491c-1.185-0.349-2.522-0.475-3.83-0.32c-1.309,0.149-2.579,0.579-3.647,1.191   c-1.09,0.61-1.904,1.385-2.624,2.136c-1.443,1.45-2.405,2.417-2.405,2.417c-0.491,0.767-0.336,0.894,0.911-0.092   c0.619-0.487,1.529-1.278,2.735-2.358c1.083-0.945,2.739-1.956,5.034-2.189c-1.875,0.253-2.993,1.071-3.178,1.262   c-0.095,0.108,0.027,0.078,0.42-0.098c0.397-0.162,1.077-0.475,2.165-0.696c0.112-0.045,0.891-0.259,1.961-0.255   c1.068-0.013,2.404,0.262,3.486,0.771c1.092,0.495,1.913,1.169,2.295,1.475c0.219,0.177,0.319,0.232,0.255,0.12   c-0.077-0.12-0.271-0.387-0.674-0.781c0.226,0.185,0.415,0.366,0.647,0.592c0.234,0.232,0.471,0.467,0.71,0.704   c0.477,0.475,0.961,0.958,1.455,1.45c0.982,0.986,1.998,2.006,3.043,3.056c2.08,2.111,4.28,4.345,6.58,6.68   c4.584,4.685,9.566,9.776,14.784,15.108c1.307,1.33,2.628,2.675,3.962,4.033c0.726,0.719,1.196,1.223,1.653,1.924   c0.435,0.676,0.776,1.413,1.005,2.189c0.459,1.55,0.461,3.249-0.011,4.812c-0.467,1.565-1.408,2.985-2.683,4.039   c-1.264,1.055-2.847,1.723-4.499,1.893c-1.65,0.173-3.356-0.154-4.828-0.936c-0.75-0.399-1.389-0.866-2.042-1.504l-2.511-2.446   c-1.649-1.593-3.295-3.182-4.934-4.765c4.66,4.502,6.176,5.892,6,5.614c-0.167-0.269-2.006-2.188-3.819-4.068   c-3.601-3.735-7.143-7.36,3.938,3.605c-4.443-4.701-7.602-7.892-9.997-10.207c-2.411-2.33-4.11-3.837-5.997-5.532   c0.191,4.533,0.38,9.458,0.339,18.184c-0.112,0.843-0.105-2.069-0.125-5.872c-0.02-3.808-0.067-8.487-0.289-11.55   c-0.01,4.596-0.02,9.012-0.029,13.291c0.027,4.152,0.053,8.171,0.078,12.099c0.117,6.539,0.228,12.774,0.338,18.978   c0.26,12.408,0.527,24.696,0.433,39.063l-0.487,1.229C86.365,208.373,86.433,214.413,86.505,220.695z M87.112,277.538   c0.055,5.529,0.111,11.138,0.168,16.838c0.005-0.556,0.009-1.072,0.015-1.653l0.393,16.616c0.19-10.211,0.726-16.937,0.975-2.647   c-0.202-1.203-0.449,2.974-0.566-1.994c-0.055,2.395-0.127,5.503-0.202,8.733c-0.056,3.233-0.096,6.563-0.104,9.527   c-0.007,2.94,0.017,5.39,0.089,6.658c0.073,1.278,0.193,1.352,0.377-0.204c-0.174-4.229-0.202-6.845-0.155-8.297   c0.047-1.467,0.17-1.865,0.298-2.162c0.257-0.579,0.536-0.666,0.278-7.896c0.12,1.939,0.196,3.875,0.247,5.802   c0.031,1.792,0.061,3.576,0.092,5.347c0.032,3.283,0.032,6.563,0.139,9.513c-0.201-2.909-0.428-2.384-0.629,0.595   c-0.201,2.945-0.376,8.386-0.472,14.378c0.003,0.198,0.007,0.41,0.014,0.813c1.426-2.352,3.764-6.062,6.284-10.081   c2.515-4.012,5.213-8.334,7.186-11.64c-0.899,1.006-0.468-0.012-0.685,0.08c-0.207,0.075-1.017,1.188-4.124,6.01   c1.136-1.912,2.542-4.244,4.164-6.834c0.904-1.422,1.866-2.933,2.87-4.511c1.101-1.675,2.248-3.422,3.427-5.218   c-1.751,2.923-4.879,7.99-4.521,7.729c3.306-4.469,6.75-9.97,8.811-12.905c1.502-2.43,3.019-4.882,4.494-7.267   c-0.479,0.687-0.91,1.273-1.239,1.676l4.724-8.241c-6.561,10.808-3.292,4.833-3.428,4.554c0.265,0.569,4.397-6.849,6.689-10.519   l-5.483,7.655c2.186-3.992,8.893-13.355,7.161-11.643c-5.41,8.377-9.117,14.2-12.656,19.847   c-3.416,5.513-6.708,10.828-11.331,18.288c0,0,0.207-0.276,0.516-0.691c0.158-0.213,0.342-0.46,0.539-0.726   c0.244-0.339,0.503-0.7,0.763-1.062c1.067-1.491,2.135-2.981,2.135-2.981c-1.235,2-2.264,3.667-3.139,5.085   c-0.759,1.208-1.396,2.192-1.942,3.014c-1.095,1.645-1.832,2.637-2.541,3.566c-1.431,1.876-2.715,3.438-6.558,9.485   c0-0.364,0.001-0.955,0.002-1.577c-0.197-2.831-0.204-9.34-0.261-14.922c-0.02-1.413-0.038-2.771-0.055-4.02   c-0.036-1.633-0.069-3.119-0.097-4.382c-0.083-2.544-0.208-4.185-0.406-4.303c0.241,2.863,0.704-14.217,0.346-22.042   c-0.724-8.647-0.821-34.801-1.151-26.878c-0.009,7.065,0.389,16.576-0.082,22.257l-0.151-13.707l-0.394,8.994   C88.078,274.949,87.692,275.4,87.112,277.538z M249.181,289.094c0.13,0.076,0.299,0.175,0.458,0.267   c-0.177-0.099-0.348-0.195-0.513-0.288L249.181,289.094z" fill="#202020"/><path d="M366.758,391.285c3.941-0.18,13.688-0.15,11.778-0.539C378.772,391.174,361.123,390.812,366.758,391.285z" fill="#202020"/><path d="M378.412,391.701c0.687-0.102,0.209-0.264,4.582-0.279l-12.04,0.108L378.412,391.701z" fill="#202020"/><path d="M390.629,394.613c6.21-0.317,10.146-0.496,19.892-0.468c3.66,1.04-15.956,0.29-20.375,1.261   c8.933,0.049,14.77-0.154,20.211-0.38c2.721-0.109,5.342-0.214,8.201-0.328c1.316-0.039,2.687-0.079,4.15-0.123   c1.218-0.021,2.514-0.044,3.919-0.067c-0.65-0.055-1.591-0.106-2.756-0.152c-0.589-0.021-1.227-0.043-1.903-0.067   c-0.838-0.019-1.723-0.038-2.645-0.059c-3.82-0.071-8.237-0.119-12.443-0.128C398.467,394.084,390.898,394.219,390.629,394.613z" fill="#202020"/><polygon fill="#202020" points="382.695,395.927 392.63,395.693 391.65,395.632 381.707,395.866  "/><path d="M167.514,386.896c-0.896-0.324-7.085-0.005-10.406,0.074C159.808,386.991,163.586,387.076,167.514,386.896z   " fill="#202020"/><path d="M226.991,378.568l75.786-0.313C280.971,378.345,260.838,378.428,226.991,378.568z" fill="#202020"/><path d="M71.489,236.345c0.307,20.349,0.867,29.389,1.01,50.124c0.654-27.265-1.023-36.011-0.353-58.902   L71.489,236.345z" fill="#202020"/><path d="M74.08,243.522c-0.612,3.373-0.717-15.701-1.166-12.746c0.149,13.714,0.583,6.386,0.53,18.832   L74.08,243.522z" fill="#202020"/><polygon fill="#202020" points="63.968,335.735 63.65,329.564 63.766,334.532  "/><polygon fill="#202020" points="73.535,150.781 73.674,153.029 73.867,142.825  "/><path d="M73.815,155.278l-0.141-2.249L73.815,155.278z" fill="#202020"/><polygon fill="#202020" points="62.656,327.806 62.525,336.977 62.806,341.513  "/><path d="M65.937,246.863l0.196,8.204C66.095,253.439,66.346,242.215,65.937,246.863z" fill="#202020"/><path d="M44.335,132.996c0,0-0.235-0.104-0.548-0.346c-0.32-0.238-0.715-0.618-1.005-1.055   c-0.296-0.437-0.488-0.943-0.588-1.339c-0.091-0.398-0.11-0.676-0.11-0.676c-0.013-0.001-0.023,0.456-0.023,0.456   s0.047,0.276,0.179,0.665c0.141,0.386,0.384,0.871,0.728,1.285c0.342,0.415,0.783,0.769,1.117,0.964   c0.335,0.209,0.583,0.292,0.583,0.292s-0.085-0.06-0.169-0.119C44.416,133.059,44.335,132.996,44.335,132.996z" fill="#202020"/><path d="M64.249,182.647c-0.47,5.667-0.127-16.368-0.543-4.707C63.779,188.314,64.024,184.104,64.249,182.647z" fill="#202020"/><path d="M44.754,116.282c0.952-0.952,1.943-1.967,2.873-2.97C46.495,114.483,45.545,115.465,44.754,116.282z" fill="#202020"/><path d="M44.754,116.282c-1.537,1.537-3.105,3.042-4.541,4.438c-0.704,0.705-1.427,1.334-2.032,2.095   c-0.587,0.745-1.033,1.515-1.323,2.247c0.645-1.28,1.416-2.215,2.167-2.956c0.724-0.712,1.358-1.335,1.968-1.934   C42.196,118.964,43.271,117.828,44.754,116.282z" fill="#202020"/><path d="M83.51,88.913c0,0-0.885-0.569-1.873-0.931c-0.978-0.386-2.021-0.545-2.021-0.545   c1.068,0.115,1.73,0.316,2.073,0.412c0.344,0.102,0.375,0.102,0.161,0.021c-0.419-0.157-1.87-0.655-3.8-0.576   c-2.235,0.033-3.225,0.534-3.727,0.738c-0.503,0.24-0.532,0.342-0.75,0.486c-0.762,0.423-1.466,0.926-2.135,1.563   c0.976-0.885,2.024-1.497,2.963-1.888c1.583-0.573,3.13-0.693,4.428-0.588c1.303,0.11,2.368,0.429,3.149,0.742   c0.782,0.317,1.299,0.603,1.555,0.73C83.792,89.202,83.801,89.158,83.51,88.913z" fill="#202020"/><path d="M80.634,208.452c0.175-14.557,0.26-18.322,0.625-17.531c0.116-13.818-0.512-11.675-0.658-20.009   C80.671,186.548,80.503,189.744,80.634,208.452z" fill="#202020"/><path d="M80.6,170.912c-0.009-1.752-0.019-3.425-0.029-5.458C80.56,167.728,80.575,169.415,80.6,170.912z" fill="#202020"/><polygon fill="#202020" points="35.816,119.435 41.912,112.535 39.619,114.938  "/><path d="M80.45,230.055c0.023-2.7,0.007-7.027,0.132-9.151C80.216,220.126,80.427,232.748,80.45,230.055z" fill="#202020"/><path d="M87.608,173.912c0.224-1.478,0.09-10.792,0.176-14.583C87.737,164.767,87.064,169.199,87.608,173.912z" fill="#202020"/><path d="M81.956,271.818c0.023-2.7,0.269-6.851,0.571-5.053C82.348,262.844,81.704,257.536,81.956,271.818z" fill="#202020"/><polygon fill="#202020" points="87.543,200.516 87.667,198.438 87.432,188.476  "/><path d="M92.934,164.983c-0.436-11.204-1.051,17.773-1.42-1.523c-0.456,24.892,0.617-1.909,0.546,16.453   C92.208,169.16,92.759,163.891,92.934,164.983z" fill="#202020"/><path d="M92.061,179.913c-0.012,1.563-0.024,3.255-0.038,5.092C92.038,182.972,92.051,181.331,92.061,179.913z" fill="#202020"/><path d="M89.303,334.601c-0.046-1.257-0.096-2.1-0.147-2.883C89.192,332.746,89.237,333.695,89.303,334.601z" fill="#202020"/><path d="M92.421,238.553l-0.654-16.792c0.436,11.217,0.409,39.436,1.06,37.677   c0.132-9.138-0.041-20.132-0.322-24.649L92.421,238.553z" fill="#202020"/><path d="M138.593,281.327l-3.65,6.275l4.895-7.624C138.371,282.122,140.469,277.896,138.593,281.327z" fill="#202020"/><path d="M140.783,278.504l-0.946,1.475C140.057,279.661,140.359,279.194,140.783,278.504z" fill="#202020"/><path d="M88.988,305.835c0.046-5.426,0.028-9.766-0.088-14.714C88.777,293.174,88.662,306.691,88.988,305.835z" fill="#202020"/><path d="M162.97,243.245c0,0-0.273,0.037-0.656,0.178c-0.382,0.14-0.858,0.407-1.231,0.78   c-0.188,0.183-0.359,0.386-0.496,0.6c-0.316,0.51-0.61,0.986-0.863,1.395c-0.589,0.955-0.982,1.592-0.982,1.592   s0.433-0.693,1.082-1.731c0.879-1.408,0.925-1.522,1.424-1.958c0.431-0.372,0.974-0.617,1.4-0.72   c0.425-0.111,0.719-0.108,0.719-0.108C163.368,243.265,162.97,243.245,162.97,243.245z" fill="#202020"/><polygon fill="#202020" points="207.827,268.624 209.572,269.735 218.362,274.359 216.588,273.232  "/><path d="M145.954,245.91c-4.387,6.832-7.273,12.508-6.036,10.776l8.371-13.331   c-2.566,3.112-2.315,3.702-7.29,11.353L145.954,245.91z" fill="#202020"/><path d="M376.543,182.82c2.1-2.841,13.771-15.5,14.617-15.953c-1.444,1.813-7.592,8.839-3.514,4.621l8.494-10.683   c12.517-13.111-8.399,10.971-14.168,17.818c12.437-13.642,15.688-18.076,28.834-32.662c-3.933,4.252-6.538,6.832-8.72,8.984   c-0.886,0.1,11.556-13.318,20.275-23.067c-5.765,6.015-2.701,2.292,1.187-2.371c0.717-0.823,1.178-1.385,1.494-1.795   c0.451-0.543,0.878-1.057,1.316-1.585l-1.049,1.167c0.024-0.127-0.267,0.077-1.104,0.844c-7.219,8.269-13.204,14.173-17.938,19.418   c5.387-4.543-15.94,18.025-21.667,24.823l-6.794,7.683l-2.567,2.852c-0.595,0.502,0.038-0.397,3.813-4.871   c-3.127,3.754-14.075,15.807-12.84,14.897l-24.863,27.617c-0.804,0.833-1.614,1.66-2.239,2.25   c-0.816,0.997-0.924,1.191-0.773,1.097c0,0-27.082,30.082-54.163,60.164c-3.385,3.761-6.771,7.521-10.103,11.222   c-1.666,1.852-3.319,3.688-4.952,5.501c-0.816,0.907-1.628,1.809-2.434,2.704l-0.952,1.05c-0.112,0.112-0.231,0.212-0.358,0.3   c-0.499,0.351-1.142,0.519-1.735,0.459c-0.297-0.028-0.579-0.104-0.847-0.226l-0.238-0.122l-0.725-0.402   c-0.481-0.268-0.959-0.534-1.435-0.798c-3.8-2.113-7.393-4.111-10.709-5.955c-13.266-7.376-22.109-12.294-22.109-12.294   c6.942,3.951,12.874,7.502,20.018,11.601c-11.111-5.454,11.744,6.668,8.281,5.431c-4.961-2.511-12.033-6.524-16.194-9.009   c-1.725-0.611,4.175,2.981,3.301,2.912c4.415,2.566,7.94,4.507,11.017,6.128c1.538,0.811,2.963,1.541,4.333,2.23   c0.685,0.343,1.354,0.678,2.017,1.009c0.331,0.164,0.66,0.327,0.988,0.49c0.148,0.071,0.364,0.184,0.455,0.221   c0.077,0.028,0.149,0.063,0.227,0.085c1.193,0.409,2.52,0.289,3.678-0.413c0.681-0.435,0.689-0.497,2.369-2.408   c1.35-1.524,2.845-3.183,4.536-5.018c-0.259,0.832-4.151,5.63,4.558-4.11l-2.164,2.52c13.702-15.818,11.525-11.559,19.598-22.015   l0.16,0.61c6.058-7.317,18.416-21.039,25.327-28.818l-0.34,0.529c19.092-22.092,10.874-12.26,32.628-36.784l-9.642,11.62   c7.758-8.231,8.968-10.573,14.453-16.559c-0.313,0.5,1.232-0.64-3.828,5.121l25.927-30.179   C385.335,173.382,377.698,181.873,376.543,182.82z" fill="#202020"/><path d="M410.807,145.961c1.43-1.545,3.04-3.314,4.915-5.426C413.892,142.555,412.317,144.295,410.807,145.961z" fill="#202020"/><path d="M217.635,279.978l9.941,5.527C224.513,283.764,221.308,281.969,217.635,279.978z" fill="#202020"/><path d="M430.727,114.53c0.536,0.098,0.658,0.235,0.599,0.261c-0.064,0.042-0.324,0.016-0.65,0.057   c-0.326,0.033-0.708,0.141-0.984,0.292c-0.282,0.145-0.458,0.329-0.491,0.41c0,0,0.297-0.247,0.873-0.379   c0.577-0.142,1.41-0.049,2.028,0.417c0.668,0.488,0.979,1.205,1.025,1.81c0.049,0.601-0.098,0.97-0.098,0.97   c0.233,0.018,0.162,0.738,0.376,0.706c-0.006-0.002,0.049-0.085,0.11-0.244c0.061-0.158,0.147-0.388,0.189-0.683   c0.104-0.581,0.018-1.435-0.393-2.093c-0.386-0.672-1.098-1.174-1.629-1.344C431.134,114.516,430.727,114.53,430.727,114.53z" fill="#202020"/><path d="M430.342,121.128c-0.455,0.716-2.111,2.743-3.982,4.999c0,0,2.264-2.514,4.526-5.028   c0.552-0.613,1.104-1.227,1.62-1.802c0.137-0.158,0.241-0.313,0.317-0.45c0.154-0.274,0.205-0.48,0.205-0.48   c-0.081-0.015-0.162,0.068-0.331,0.258c-0.081,0.097-0.186,0.217-0.337,0.366c-0.052,0.058-0.046,0.03-0.16,0.159   c-0.178,0.188-0.364,0.385-0.562,0.593C431.247,120.161,430.817,120.622,430.342,121.128z" fill="#202020"/><polygon fill="#202020" points="440.148,126.44 437.235,129.701 432.923,134.72  "/><path d="M393.705,176.654c3.725-3.674,10.184-11.192,12.344-13.707   C398.412,171.438,401.638,167.683,393.705,176.654z" fill="#202020"/><polygon fill="#202020" points="405.604,168.378 398.365,176.673 399.097,175.951  "/><path d="M146.386,282.814c-0.952,1.532-1.876,3.021-2.839,4.569C144.863,285.301,145.707,283.932,146.386,282.814z" fill="#202020"/><path d="M225.946,286.403c-22.656-13.286,15.273,7.937,8.433,3.264l-12.608-6.73l1.161,0.414l-15.259-8.416   c2.955,2.043,5.292,3.368,4.434,3.31c-20.258-11.438-6.197-3.946-20.886-12.648c-8.904-4.932-17.808-9.864-26.718-14.823   l-2.081,3.351l2.044-3.449c-2.18,3.473-3.119,5.05-3.827,6.284l-48.283,77.039c-8.255,13.643,5.258-7.109-0.557,3.126   c9.851-15.634,24.821-38.659,25.041-40.374c-0.246,0.579-0.728,1.72,1.342-1.403l5.191-9.361l-5.595,8.52   c2.079-3.745,6.28-10.64,10.801-17.884c2.278-3.612,4.618-7.322,6.798-10.78c3.46-5.415,6.667-10.435,9.269-14.506   c5.388,3.058,9.236,5.275,11.197,6.453c-4.753-2.583-8.398-4.564-11.088-6.026c-2.432,3.987-4.007,6.638-5.347,8.907   c-0.632,1.075-1.215,2.067-1.816,3.089c-0.356,0.619-0.722,1.257-1.138,1.981c-1.688,2.884-4.295,7.081-10.627,16.818   c0.815-0.947,3.773-5.032,0.559,0.259c6.39-10.193,12.568-20.05,18.687-29.812c10.672,5.919,21.244,11.782,32.029,17.764   C206.408,275.888,215.923,281.068,225.946,286.403z" fill="#202020"/><path d="M221.978,377.998l-0.255,0.066C222.304,378.029,222.494,378.002,221.978,377.998z" fill="#202020"/><path d="M211.166,377.908l-15.701,0.714l24.48-0.058l1.778-0.5c-2.164,0.127-10.746,0.381-14.073,0.185   L211.166,377.908z" fill="#202020"/><path d="M177.235,379.054c12.642-0.213,11.956-0.803,5.059-1.072c11.609-0.273,6.125,0.635,14.119,0.012   c-0.261-0.426-14.57-0.176-17.858-0.098L177.235,379.054z" fill="#202020"/><path d="M96.19,360.781l-3.017,5.246l7.159-11.237c0,0-0.789,1.105-1.577,2.212   C97.472,358.891,96.19,360.781,96.19,360.781z" fill="#202020"/><path d="M93.173,366.027c-2.659,4.179-5.318,8.357-7.938,12.515l0.203,0.022c-0.039-0.01-0.077-0.019-0.19-0.028   c0.795-0.941,1.637-1.968,3.028-3.955L93.173,366.027z" fill="#202020"/><path d="M119.019,378.734c3.68,0.027,7.752,0.058,12.707,0.094L119.019,378.734z" fill="#202020"/><path d="M107.719,378.584l0.496,0.078l10.804,0.072C114.978,378.68,111.352,378.633,107.719,378.584z" fill="#202020"/><path d="M85.437,378.564c0.855,0.207,1.837,0.419,5.529,0.564c1.846,0.073,4.375,0.13,7.891,0.16   c1.767,0.008,3.767,0.017,6.04,0.026c2.057-0.005,4.361-0.011,6.945-0.019c0,0-0.155-0.039-0.386-0.099   c-0.249-0.06-0.447-0.14-1.1-0.219c-1.071-0.159-2.141-0.317-2.141-0.317L85.437,378.564z" fill="#202020"/><polygon fill="#202020" points="351.552,227.443 345.071,234.986 345.823,234.247 352.299,226.708  "/><path d="M312.873,269.809c-1.591,1.875-2.781,3.311-3.856,4.62C310.715,272.476,312.042,270.9,312.873,269.809z" fill="#202020"/><path d="M286.426,303.383c-8.137,8.409,10.39-12.354-4.243,3.612c-1.564,1.159,4.859-6.718,11.828-14.164   c-0.272,0.846-6.478,7.537-2.006,3.129c4.22-5.313,6.157-7.034,4.17-5.648c7.372-8.694,7.931-9.897,12.842-15.882   c-4.52,5.197-11.724,13.072-19.194,21.331c-3.735,4.129-7.537,8.354-11.104,12.388c-0.889,1.011-1.766,2.007-2.626,2.985   c-0.432,0.494-0.859,0.983-1.282,1.468c-0.622,0.702-1.306,1.34-2.034,1.904c-2.922,2.28-6.505,3.271-9.771,3.156   c-3.605-0.076-5.812-1.162-6.822-1.478c-0.799-0.225-1.051-0.131-1.044,0.116c0.006,0.248,0.27,0.649,0.501,1.04   c0.363,0.467,0.889,0.982,0.754,1.177c0.273,0.16,1.133,0.606,2.519,1.046c1.382,0.433,3.31,0.826,5.571,0.765   c2.253-0.056,4.834-0.592,7.297-1.817c1.229-0.609,2.423-1.386,3.516-2.31c0.543-0.464,1.069-0.955,1.554-1.486l0.895-0.992   C282.106,308.844,286.345,303.943,286.426,303.383z" fill="#202020"/><path d="M299.448,290.348c3.658-3.99,4.736-5.244,6.9-7.764C305.507,283.031,302.365,287.09,299.448,290.348z" fill="#202020"/><path d="M190.429,274.384c-0.969-0.384-9.606-4.999-7.881-3.771l13.055,7.069   C192.57,275.969,191.576,275.226,190.429,274.384z" fill="#202020"/><path d="M201.327,280.785l-5.724-3.103C197.019,278.484,198.787,279.447,201.327,280.785z" fill="#202020"/><path d="M189.853,273.967c0.192,0.139,0.363,0.263,0.576,0.417C190.626,274.46,190.606,274.416,189.853,273.967z" fill="#202020"/><path d="M155.043,378.972c-0.209,0.262,6.406,0.105,9.727,0.027C162.07,378.978,158.278,378.892,155.043,378.972z" fill="#202020"/><path d="M404.069,377.943l5.844,0.207C407.847,378.027,406.788,377.965,404.069,377.943z" fill="#202020"/><path d="M443.042,343.427c0.156,0.085,0.492,0.359,0.932,0.742C443.539,343.781,443.222,343.525,443.042,343.427z" fill="#202020"/><path d="M443.974,344.169c2.978,2.671,11.454,11.629,14.821,14.529l-0.469-0.326l5.972,5.695   C458.81,358.619,447.364,347.112,443.974,344.169z" fill="#202020"/></g></svg>